<?xml version="1.0" encoding="UTF-8" standalone="no"?>
<!-- Created with matplotlib (https://matplotlib.org/) -->

<svg
   xmlns:dc="http://purl.org/dc/elements/1.1/"
   xmlns:cc="http://creativecommons.org/ns#"
   xmlns:rdf="http://www.w3.org/1999/02/22-rdf-syntax-ns#"
   xmlns:svg="http://www.w3.org/2000/svg"
   xmlns="http://www.w3.org/2000/svg"
   xmlns:sodipodi="http://sodipodi.sourceforge.net/DTD/sodipodi-0.dtd"
   xmlns:inkscape="http://www.inkscape.org/namespaces/inkscape"
   height="315.58594"
   version="1.1"
   viewBox="0 0 265.6875 252.46875"
   width="332.10938"
   id="svg2"
   inkscape:version="0.48.5 r10040"
   sodipodi:docname="logo.svg">
  <metadata
     id="metadata237">
    <rdf:RDF>
      <cc:Work
         rdf:about="">
        <dc:format>image/svg+xml</dc:format>
        <dc:type
           rdf:resource="http://purl.org/dc/dcmitype/StillImage" />
      </cc:Work>
    </rdf:RDF>
  </metadata>
  <sodipodi:namedview
     pagecolor="#ffffff"
     bordercolor="#666666"
     borderopacity="1"
     objecttolerance="10"
     gridtolerance="10"
     guidetolerance="10"
     inkscape:pageopacity="0"
     inkscape:pageshadow="2"
     inkscape:window-width="1359"
     inkscape:window-height="714"
     id="namedview235"
     showgrid="false"
     fit-margin-top="0"
     fit-margin-left="0"
     fit-margin-right="0"
     fit-margin-bottom="0"
     inkscape:zoom="0.81666667"
     inkscape:cx="109.10156"
     inkscape:cy="82.197066"
     inkscape:window-x="0"
     inkscape:window-y="25"
     inkscape:window-maximized="1"
     inkscape:current-layer="svg2" />
  <defs
     id="defs4"
     style="stroke-linecap:butt;stroke-linejoin:round">
    <style
       type="text/css"
       id="style6">
*{stroke-linecap:butt;stroke-linejoin:round;}
  </style>
  </defs>
  <g
     id="g4279"
     style="stroke-linecap:butt;stroke-linejoin:round"
     transform="translate(-128.71875,-35.65625)">
    <g
       id="figure_1"
       style="stroke-linecap:butt;stroke-linejoin:round">
      <rect
         ry="10.519315"
         y="37.224491"
         x="130.28572"
         height="249.31673"
         width="262.53061"
         id="rect3501"
         style="fill:#f9f9f9;fill-opacity:1;stroke:#000000;stroke-width:3.16222239;stroke-linecap:butt;stroke-linejoin:round;stroke-miterlimit:4;stroke-opacity:1;stroke-dasharray:none;stroke-dashoffset:0" />
      <path
         transform="matrix(0.67209336,-0.54781449,0.50386058,0.73072294,8.4001557,216.68536)"
         d="m 445.71429,115.10204 c 0,43.28109 -68.52784,78.36735 -153.06121,78.36735 -84.53338,0 -153.06122,-35.08626 -153.06122,-78.36735 0,-43.281088 68.52784,-78.367345 153.06122,-78.367345 84.53337,0 153.06121,35.086257 153.06121,78.367345 z"
         sodipodi:ry="78.367348"
         sodipodi:rx="153.06122"
         sodipodi:cy="115.10204"
         sodipodi:cx="292.65308"
         id="path3494"
         style="fill:#f9f9f9;fill-opacity:1;stroke:#000000;stroke-width:3.70000005;stroke-linecap:butt;stroke-linejoin:round;stroke-miterlimit:4;stroke-opacity:1;stroke-dasharray:none;stroke-dashoffset:0"
         sodipodi:type="arc" />
      <g
         id="line2d_13"
         style="stroke-linecap:butt;stroke-linejoin:round">
        <path
           transform="translate(-3.2,3.2)"
           clip-path="url(#p59093bc8e4)"
           d="m 190.96364,180.33316 1.22975,0.023 1.22975,0.20905 1.22975,0.3895 1.22975,0.56108 1.22976,0.72078 1.22975,0.86623 1.22975,0.99556 1.22975,1.10758 1.22975,1.20167 1.22976,1.27779 1.22975,1.33642 1.22975,1.37836 1.22975,1.4048 1.22975,1.41712 1.22976,1.41679 1.22975,1.40538 1.22975,1.38443 1.22975,1.35541 1.22976,1.31973 1.22975,1.27865 1.22975,1.23332 1.22975,1.18476 1.22975,1.13385 1.22976,1.08133 1.22975,1.02784 1.22975,0.9739 1.22975,0.91994 1.22975,0.86629 1.22976,0.81321 1.22975,0.7609 1.22975,0.70949 1.22975,0.65908 1.22975,0.6097 1.22976,0.56137 1.22975,0.5141 1.22975,0.4678 1.22975,0.42246 1.22976,0.37796 1.22975,0.33424 1.22975,0.29118 1.22975,0.24867 1.22975,0.20658 1.22975,0.16478 1.22976,0.12313 1.22975,0.0815 1.22975,0.0397 1.22975,-0.002 1.22976,-0.0451 1.22975,-0.0885 1.22975,-0.13274 1.22975,-0.17811 1.22975,-0.22482 1.22976,-0.27312 1.22975,-0.32328 1.22975,-0.37558 1.22975,-0.43034 1.22975,-0.4879 1.22976,-0.54865 1.22975,-0.61298 1.22975,-0.68134 1.22975,-0.75426 1.22975,-0.83227 1.22976,-0.91599 1.22975,-1.00609 1.22975,-1.10334 1.22975,-1.20858 1.22976,-1.32272 1.22975,-1.44683 1.22975,-1.58205 1.22975,-1.72964 1.22975,-1.89104 1.22975,-2.06778 1.22976,-2.26157 1.22975,-2.47423 1.22975,-2.70776 1.22975,-2.96421 1.22975,-3.24576 1.22976,-3.55453 1.22975,-3.89254 1.22975,-4.26152 1.22975,-4.66268 1.22976,-5.09634 1.22975,-5.56147 1.22975,-6.05503 1.22975,-6.5712 1.22975,-7.10025 1.22976,-7.62739 1.22975,-8.13139 1.22975,-8.58326 1.22975,-8.94537 1.22975,-9.171344 1.22976,-9.207634 1.22975,-8.99716 1.22975,-8.486 1.22975,-7.632772 1.22975,-6.41977 1.22976,-4.863351 1.22975,-3.02014 1.22975,-0.985663"
           style="fill:none;stroke:#1f77b4;stroke-width:4;stroke-linecap:square;stroke-linejoin:round;stroke-miterlimit:4;stroke-dasharray:none"
           id="path213"
           inkscape:connector-curvature="0" />
      </g>
      <g
         id="line2d_14"
         style="stroke-linecap:butt;stroke-linejoin:round">
        <path
           inkscape:connector-curvature="0"
           id="path216"
           d="m 155.30083,241.53807 c 5.53465,-7.0026 4.28778,-17.16202 6.34867,-24.95063 2.34722,5.62545 0.0261,18.16295 5.96042,19.8054 4.08374,-6.01762 3.35952,-20.79409 7.03769,-22.66234 1.54645,7.94963 -0.98294,19.21719 3.74805,24.9656 5.33612,-8.37898 0.84696,-19.00177 4.96285,-27.87587 5.59799,5.02673 0.79128,17.69073 6.32022,24.44133 6.40808,-1.64911 2.55958,-16.23872 4.24645,-22.96815 0.45837,-5.10368 0.22132,-16.40762 1.90406,-17.55023 1.49352,12.39647 0.38916,25.23866 4.03615,37.29511 6.78532,7.51176 5.74235,-9.8785 6.26544,-14.27758 0.76373,-5.28775 -0.49023,-13.67495 1.78762,-17.22986 0.21835,11.31101 0.60387,23.4443 5.40373,34.04642 6.7617,2.11512 4.237,-13.91424 5.86491,-19.2267 1.83231,-3.56947 1.8298,10.50884 3.07214,13.08347 -0.8503,6.84594 7.51903,12.86926 8.11671,2.80505 -0.30303,-3.59681 1.28567,-12.65261 3.22578,-4.36888 1.17199,4.96937 3.85907,17.35399 8.70882,7.66301 1.90466,-2.96028 2.41838,-16.01308 3.45325,-5.83533 -0.71379,9.48724 9.80087,12.66764 9.75454,1.58992 3.84947,-15.6675 4.5849,15.45078 10.44354,6.60612 2.24577,-4.56443 1.12878,-15.39265 4.17681,-16.51557 1.60892,5.23369 2.18646,17.58365 7.72356,17.7685 3.09711,-10.41773 0.23699,-22.01259 3.99634,-32.16663 -0.38255,7.63593 0.72727,18.19611 4.71875,26.02422 6.12783,6.08381 4.14311,-10.31697 4.72232,-14.08562 0.66503,-20.82147 1.60344,-41.63287 2.34828,-62.45144 2.26152,24.59018 -0.0144,49.57898 4.62273,73.93123 3.24302,13.00252 2.86111,-7.46447 3.73826,-12.25658 3.44463,-45.45151 2.17165,-91.07408 3.93653,-136.591065 1.02479,49.671425 2.04959,99.342845 3.07438,149.014275 8.30832,-7.20991 3.125,-22.20355 4.43959,-32.47223 0.13942,-12.11063 0.22468,-24.19074 1.6534,-36.2319 -0.0999,-5.03606 3.56045,-13.55954 3.49907,-3.28921 0.89961,26.8801 1.80798,53.76109 2.70547,80.64172 7.07468,-21.53722 2.9345,-44.4796 5.00622,-66.65712 0.38085,-12.28965 0.76169,-24.5793 1.14254,-36.86895 2.42058,34.20854 -0.52564,68.81165 5.54838,102.73005 2.5801,-6.60442 2.24137,-17.14891 6.90054,-21.27821 3.5904,5.74429 -1.75631,19.94787 4.97451,21.47268 4.62387,-8.54907 0.87198,-19.34951 4.35595,-27.86327 2.18971,9.20216 -1.64295,20.19226 4.8135,28.17804 4.96126,-1.26559 1.85732,-17.10022 5.22451,-6.14974 1.07335,7.64884 9.9409,4.96068 12.86233,6.2824 0.58584,1.2415 0.9434,2.57785 1.43598,3.85753"
           clip-path="url(#p59093bc8e4)"
           style="fill:none;stroke:#ff7f0e;stroke-width:4;stroke-linecap:square;stroke-linejoin:round;stroke-miterlimit:4;stroke-dasharray:none" />
      </g>
      <g
         id="patch_6"
         style="stroke-linecap:butt;stroke-linejoin:round" />
      <flowRoot
         transform="matrix(0.8,0,0,0.8,15.673469,-2.9387755)"
         style="font-size:30px;font-style:normal;font-weight:normal;line-height:125%;letter-spacing:0px;word-spacing:0px;fill:#000000;fill-opacity:1;stroke:none;font-family:Sans"
         id="flowRoot4271"
         xml:space="preserve"><flowRegion
           id="flowRegion4273"><rect
             style="font-size:30px"
             y="311.02042"
             x="177.55103"
             height="37.959183"
             width="293.87756"
             id="rect4275" /></flowRegion><flowPara
           style="font-size:30px"
           id="flowPara4277">Spectrojotometer</flowPara></flowRoot>    </g>
  </g>
  <defs
     id="defs230">
    <clipPath
       id="p59093bc8e4">
      <rect
         height="217.44"
         width="334.79999"
         x="54"
         y="34.560001"
         id="rect233"
         style="stroke-linecap:butt;stroke-linejoin:round" />
    </clipPath>
  </defs>
</svg>
