<?xml version="1.0" encoding="UTF-8" standalone="no"?>
<!-- Created with Inkscape (http://www.inkscape.org/) -->

<svg
   xmlns:dc="http://purl.org/dc/elements/1.1/"
   xmlns:cc="http://creativecommons.org/ns#"
   xmlns:rdf="http://www.w3.org/1999/02/22-rdf-syntax-ns#"
   xmlns:svg="http://www.w3.org/2000/svg"
   xmlns="http://www.w3.org/2000/svg"
   version="1.2"
   width="332.10938"
   height="315.58594"
   viewBox="0 0 265.6875 252.46875"
   id="svg2">
  <metadata
     id="metadata237">
    <rdf:RDF>
      <cc:Work
         rdf:about="">
        <dc:format>image/svg+xml</dc:format>
        <dc:type
           rdf:resource="http://purl.org/dc/dcmitype/StillImage" />
        <dc:title></dc:title>
      </cc:Work>
    </rdf:RDF>
  </metadata>
  <defs
     id="defs4"
     style="stroke-linecap:butt;stroke-linejoin:round">
    <style
       type="text/css"
       id="style6" />
  </defs>
  <g
     transform="translate(-128.71875,-35.65625)"
     id="g4279"
     style="stroke-linecap:butt;stroke-linejoin:round">
    <g
       id="figure_1"
       style="stroke-linecap:butt;stroke-linejoin:round">
      <rect
         width="262.53061"
         height="249.31673"
         ry="10.519315"
         x="130.28572"
         y="37.224491"
         id="rect3501"
         style="fill:#f9f9f9;fill-opacity:1;stroke:#000000;stroke-width:3.16222239;stroke-linecap:butt;stroke-linejoin:round;stroke-miterlimit:4;stroke-opacity:1;stroke-dasharray:none;stroke-dashoffset:0" />
      <path
         d="m 445.71429,115.10204 a 153.06122,78.367348 0 1 1 -306.12243,0 153.06122,78.367348 0 1 1 306.12243,0 z"
         transform="matrix(0.67209336,-0.54781449,0.50386058,0.73072294,8.4001557,216.68536)"
         id="path3494"
         style="fill:#f9f9f9;fill-opacity:1;stroke:#000000;stroke-width:3.70000005;stroke-linecap:butt;stroke-linejoin:round;stroke-miterlimit:4;stroke-opacity:1;stroke-dasharray:none;stroke-dashoffset:0" />
      <g
         id="line2d_13"
         style="stroke-linecap:butt;stroke-linejoin:round">
        <path
           d="m 190.96364,180.33316 1.22975,0.023 1.22975,0.20905 1.22975,0.3895 1.22975,0.56108 1.22976,0.72078 1.22975,0.86623 1.22975,0.99556 1.22975,1.10758 1.22975,1.20167 1.22976,1.27779 1.22975,1.33642 1.22975,1.37836 1.22975,1.4048 1.22975,1.41712 1.22976,1.41679 1.22975,1.40538 1.22975,1.38443 1.22975,1.35541 1.22976,1.31973 1.22975,1.27865 1.22975,1.23332 1.22975,1.18476 1.22975,1.13385 1.22976,1.08133 1.22975,1.02784 1.22975,0.9739 1.22975,0.91994 1.22975,0.86629 1.22976,0.81321 1.22975,0.7609 1.22975,0.70949 1.22975,0.65908 1.22975,0.6097 1.22976,0.56137 1.22975,0.5141 1.22975,0.4678 1.22975,0.42246 1.22976,0.37796 1.22975,0.33424 1.22975,0.29118 1.22975,0.24867 1.22975,0.20658 1.22975,0.16478 1.22976,0.12313 1.22975,0.0815 1.22975,0.0397 1.22975,-0.002 1.22976,-0.0451 1.22975,-0.0885 1.22975,-0.13274 1.22975,-0.17811 1.22975,-0.22482 1.22976,-0.27312 1.22975,-0.32328 1.22975,-0.37558 1.22975,-0.43034 1.22975,-0.4879 1.22976,-0.54865 1.22975,-0.61298 1.22975,-0.68134 1.22975,-0.75426 1.22975,-0.83227 1.22976,-0.91599 1.22975,-1.00609 1.22975,-1.10334 1.22975,-1.20858 1.22976,-1.32272 1.22975,-1.44683 1.22975,-1.58205 1.22975,-1.72964 1.22975,-1.89104 1.22975,-2.06778 1.22976,-2.26157 1.22975,-2.47423 1.22975,-2.70776 1.22975,-2.96421 1.22975,-3.24576 1.22976,-3.55453 1.22975,-3.89254 1.22975,-4.26152 1.22975,-4.66268 1.22976,-5.09634 1.22975,-5.56147 1.22975,-6.05503 1.22975,-6.5712 1.22975,-7.10025 1.22976,-7.62739 1.22975,-8.13139 1.22975,-8.58326 1.22975,-8.94537 1.22975,-9.171344 1.22976,-9.207634 1.22975,-8.99716 1.22975,-8.486 1.22975,-7.632772 1.22975,-6.41977 1.22976,-4.863351 1.22975,-3.02014 1.22975,-0.985663"
           transform="translate(-3.2,3.2)"
           clip-path="url(#p59093bc8e4)"
           id="path213"
           style="fill:none;stroke:#1f77b4;stroke-width:4;stroke-linecap:square;stroke-linejoin:round;stroke-miterlimit:4;stroke-dasharray:none" />
      </g>
      <g
         id="line2d_14"
         style="stroke-linecap:butt;stroke-linejoin:round">
        <path
           d="m 155.30083,241.53807 c 5.53465,-7.0026 4.28778,-17.16202 6.34867,-24.95063 2.34722,5.62545 0.0261,18.16295 5.96042,19.8054 4.08374,-6.01762 3.35952,-20.79409 7.03769,-22.66234 1.54645,7.94963 -0.98294,19.21719 3.74805,24.9656 5.33612,-8.37898 0.84696,-19.00177 4.96285,-27.87587 5.59799,5.02673 0.79128,17.69073 6.32022,24.44133 6.40808,-1.64911 2.55958,-16.23872 4.24645,-22.96815 0.45837,-5.10368 0.22132,-16.40762 1.90406,-17.55023 1.49352,12.39647 0.38916,25.23866 4.03615,37.29511 6.78532,7.51176 5.74235,-9.8785 6.26544,-14.27758 0.76373,-5.28775 -0.49023,-13.67495 1.78762,-17.22986 0.21835,11.31101 0.60387,23.4443 5.40373,34.04642 6.7617,2.11512 4.237,-13.91424 5.86491,-19.2267 1.83231,-3.56947 1.8298,10.50884 3.07214,13.08347 -0.8503,6.84594 7.51903,12.86926 8.11671,2.80505 -0.30303,-3.59681 1.28567,-12.65261 3.22578,-4.36888 1.17199,4.96937 3.85907,17.35399 8.70882,7.66301 1.90466,-2.96028 2.41838,-16.01308 3.45325,-5.83533 -0.71379,9.48724 9.80087,12.66764 9.75454,1.58992 3.84947,-15.6675 4.5849,15.45078 10.44354,6.60612 2.24577,-4.56443 1.12878,-15.39265 4.17681,-16.51557 1.60892,5.23369 2.18646,17.58365 7.72356,17.7685 3.09711,-10.41773 0.23699,-22.01259 3.99634,-32.16663 -0.38255,7.63593 0.72727,18.19611 4.71875,26.02422 6.12783,6.08381 4.14311,-10.31697 4.72232,-14.08562 0.66503,-20.82147 1.60344,-41.63287 2.34828,-62.45144 2.26152,24.59018 -0.0144,49.57898 4.62273,73.93123 3.24302,13.00252 2.86111,-7.46447 3.73826,-12.25658 3.44463,-45.45151 2.17165,-91.07408 3.93653,-136.591065 1.02479,49.671425 2.04959,99.342845 3.07438,149.014275 8.30832,-7.20991 3.125,-22.20355 4.43959,-32.47223 0.13942,-12.11063 0.22468,-24.19074 1.6534,-36.2319 -0.0999,-5.03606 3.56045,-13.55954 3.49907,-3.28921 0.89961,26.8801 1.80798,53.76109 2.70547,80.64172 7.07468,-21.53722 2.9345,-44.4796 5.00622,-66.65712 0.38085,-12.28965 0.76169,-24.5793 1.14254,-36.86895 2.42058,34.20854 -0.52564,68.81165 5.54838,102.73005 2.5801,-6.60442 2.24137,-17.14891 6.90054,-21.27821 3.5904,5.74429 -1.75631,19.94787 4.97451,21.47268 4.62387,-8.54907 0.87198,-19.34951 4.35595,-27.86327 2.18971,9.20216 -1.64295,20.19226 4.8135,28.17804 4.96126,-1.26559 1.85732,-17.10022 5.22451,-6.14974 1.07335,7.64884 9.9409,4.96068 12.86233,6.2824 0.58584,1.2415 0.9434,2.57785 1.43598,3.85753"
           clip-path="url(#p59093bc8e4)"
           id="path216"
           style="fill:none;stroke:#ff7f0e;stroke-width:4;stroke-linecap:square;stroke-linejoin:round;stroke-miterlimit:4;stroke-dasharray:none" />
      </g>
      <g
         id="patch_6"
         style="stroke-linecap:butt;stroke-linejoin:round" />
      <g
         transform="matrix(0.8,0,0,0.8,15.673469,-2.9387755)"
         id="flowRoot4271"
         style="font-size:30px;font-style:normal;font-weight:normal;line-height:125%;letter-spacing:0px;word-spacing:0px;fill:#000000;fill-opacity:1;stroke:none;font-family:Sans">
        <path
           d="m 193.61719,319.78138 0,2.88574 c -1.12306,-0.53709 -2.18263,-0.93748 -3.17871,-1.20117 -0.99611,-0.26365 -1.95802,-0.39549 -2.88575,-0.39551 -1.61133,2e-5 -2.85645,0.31252 -3.73535,0.9375 -0.86914,0.62502 -1.30371,1.51369 -1.30371,2.66602 0,0.96681 0.28808,1.69923 0.86426,2.19726 0.58593,0.4883 1.68945,0.88381 3.31055,1.18653 l 1.78711,0.36621 c 2.20701,0.41993 3.83299,1.16212 4.87793,2.22656 1.05467,1.0547 1.58201,2.47071 1.58203,4.24805 -2e-5,2.11914 -0.71291,3.72559 -2.13868,4.81933 -1.41602,1.09375 -3.4961,1.64063 -6.24023,1.64063 -1.03516,0 -2.13868,-0.11719 -3.31055,-0.35156 -1.16211,-0.23438 -2.36816,-0.58106 -3.61816,-1.04004 l 0,-3.04688 c 1.20117,0.67383 2.37792,1.18165 3.53027,1.52344 1.15234,0.3418 2.28515,0.5127 3.39844,0.5127 1.68944,0 2.99315,-0.33203 3.91113,-0.9961 0.91796,-0.66406 1.37694,-1.61132 1.37696,-2.84179 -2e-5,-1.07422 -0.33205,-1.91406 -0.9961,-2.51954 -0.65431,-0.60546 -1.73341,-1.05956 -3.2373,-1.3623 l -1.80176,-0.35156 c -2.20704,-0.43945 -3.80372,-1.12792 -4.79004,-2.06543 -0.98633,-0.93749 -1.47949,-2.2412 -1.47949,-3.91114 0,-1.93357 0.67871,-3.45701 2.03613,-4.57031 1.36718,-1.11326 3.24706,-1.6699 5.63965,-1.66992 1.02538,2e-5 2.0703,0.0928 3.13477,0.27832 1.06444,0.18557 2.1533,0.46389 3.2666,0.83496"
           id="path4353" />
        <path
           d="m 202.04004,338.47279 0,8.70117 -2.70996,0 0,-22.64649 2.70996,0 0,2.49024 c 0.5664,-0.97655 1.27929,-1.6992 2.13867,-2.16797 0.86913,-0.4785 1.90429,-0.71776 3.10547,-0.71777 1.99217,10e-6 3.60838,0.79103 4.84863,2.37304 1.24999,1.58205 1.87499,3.66212 1.875,6.24024 -1e-5,2.57813 -0.62501,4.6582 -1.875,6.24023 -1.24025,1.58203 -2.85646,2.37305 -4.84863,2.37305 -1.20118,0 -2.23634,-0.23438 -3.10547,-0.70313 -0.85938,-0.47851 -1.57227,-1.20605 -2.13867,-2.18261 m 9.16992,-5.72754 c -1e-5,-1.98241 -0.41017,-3.53515 -1.23047,-4.6582 -0.81056,-1.1328 -1.92872,-1.69921 -3.35449,-1.69922 -1.42579,10e-6 -2.54884,0.56642 -3.36914,1.69922 -0.81055,1.12305 -1.21583,2.67579 -1.21582,4.6582 -1e-5,1.98243 0.40527,3.54004 1.21582,4.67285 0.8203,1.12305 1.94335,1.68457 3.36914,1.68457 1.42577,0 2.54393,-0.56152 3.35449,-1.68457 0.8203,-1.13281 1.23046,-2.69042 1.23047,-4.67285"
           id="path4355" />
        <path
           d="m 232.50879,332.05677 0,1.31836 -12.39258,0 c 0.11718,1.85548 0.67382,3.27149 1.66992,4.24805 1.00586,0.9668 2.40234,1.4502 4.18946,1.45019 1.03514,10e-6 2.03612,-0.12695 3.00293,-0.38086 0.97654,-0.2539 1.94334,-0.63476 2.90039,-1.14257 l 0,2.54882 c -0.96682,0.41016 -1.95803,0.72266 -2.97364,0.9375 -1.01563,0.21485 -2.04591,0.32227 -3.09082,0.32227 -2.61719,0 -4.69239,-0.76172 -6.22558,-2.28516 -1.52344,-1.52343 -2.28516,-3.58398 -2.28516,-6.18164 0,-2.68553 0.72265,-4.81444 2.16797,-6.38672 1.45507,-1.58201 3.41308,-2.37303 5.87402,-2.37304 2.20702,10e-6 3.95018,0.7129 5.2295,2.13867 1.28904,1.41603 1.93357,3.34474 1.93359,5.78613 m -2.69531,-0.79101 c -0.0196,-1.4746 -0.43459,-2.65136 -1.24512,-3.53028 -0.80079,-0.87889 -1.86525,-1.31834 -3.19336,-1.31836 -1.50391,2e-5 -2.70997,0.42482 -3.61816,1.27442 -0.89845,0.84962 -1.41602,2.04591 -1.55274,3.58886 l 9.60938,-0.0146"
           id="path4357" />
        <path
           d="m 248.73926,325.15736 0,2.51953 c -0.76173,-0.41991 -1.52834,-0.73241 -2.29981,-0.9375 -0.76173,-0.21483 -1.53321,-0.32225 -2.31445,-0.32227 -1.74806,2e-5 -3.10548,0.55666 -4.07227,1.66993 -0.9668,1.10352 -1.4502,2.65626 -1.45019,4.6582 -1e-5,2.00196 0.48339,3.55957 1.45019,4.67285 0.96679,1.10352 2.32421,1.65528 4.07227,1.65527 0.78124,10e-6 1.55272,-0.10253 2.31445,-0.30761 0.77147,-0.21485 1.53808,-0.53223 2.29981,-0.95215 l 0,2.49023 c -0.75197,0.35156 -1.53322,0.61524 -2.34375,0.79102 -0.80079,0.17578 -1.65529,0.26367 -2.56348,0.26367 -2.47071,0 -4.4336,-0.77637 -5.88867,-2.3291 -1.45508,-1.55273 -2.18262,-3.64746 -2.18262,-6.28418 0,-2.67577 0.73242,-4.78026 2.19727,-6.31348 1.4746,-1.53319 3.4912,-2.29979 6.0498,-2.2998 0.83007,10e-6 1.64062,0.0879 2.43164,0.26367 0.79101,0.16603 1.55761,0.41994 2.29981,0.76172"
           id="path4359" />
        <path
           d="m 256.12207,319.86927 0,4.6582 5.55176,0 0,2.09473 -5.55176,0 0,8.90625 c -1e-5,1.3379 0.18066,2.19727 0.54199,2.57813 0.37109,0.38086 1.11816,0.57129 2.24121,0.57129 l 2.76856,0 0,2.25585 -2.76856,0 c -2.08008,0 -3.51563,-0.38574 -4.30664,-1.15722 -0.79102,-0.78125 -1.18652,-2.19726 -1.18652,-4.24805 l 0,-8.90625 -1.97754,0 0,-2.09473 1.97754,0 0,-4.6582 2.70996,0"
           id="path4361" />
        <path
           d="m 274.74023,327.04701 c -0.30274,-0.17577 -0.63477,-0.30272 -0.99609,-0.38086 -0.35157,-0.0879 -0.7422,-0.13182 -1.17187,-0.13184 -1.52345,2e-5 -2.69532,0.49806 -3.51563,1.49414 -0.81055,0.98634 -1.21583,2.40724 -1.21582,4.2627 l 0,8.64257 -2.70996,0 0,-16.40625 2.70996,0 0,2.54883 c 0.5664,-0.99608 1.3037,-1.73338 2.21191,-2.21191 0.9082,-0.48827 2.01171,-0.73241 3.31055,-0.73242 0.18554,10e-6 0.39061,0.0147 0.61524,0.0439 0.22459,0.0196 0.47362,0.0537 0.74707,0.10254 l 0.0146,2.76856"
           id="path4363" />
        <path
           d="m 283.30957,326.41712 c -1.44532,2e-5 -2.5879,0.56642 -3.42773,1.69922 -0.83985,1.12306 -1.25977,2.66603 -1.25977,4.62891 0,1.9629 0.41503,3.51075 1.24512,4.64355 0.83983,1.12305 1.98729,1.68458 3.44238,1.68457 1.43554,10e-6 2.57323,-0.5664 3.41309,-1.69922 0.83983,-1.1328 1.25975,-2.67577 1.25976,-4.6289 -10e-6,-1.94335 -0.41993,-3.48144 -1.25976,-4.61426 -0.83986,-1.14256 -1.97755,-1.71385 -3.41309,-1.71387 m 0,-2.28515 c 2.34374,10e-6 4.18456,0.76173 5.52246,2.28515 1.33788,1.52345 2.00682,3.63283 2.00684,6.32813 -2e-5,2.68555 -0.66896,4.79492 -2.00684,6.32812 -1.3379,1.52344 -3.17872,2.28516 -5.52246,2.28516 -2.35352,0 -4.19922,-0.76172 -5.53711,-2.28516 -1.32813,-1.5332 -1.99219,-3.64257 -1.99219,-6.32812 0,-2.6953 0.66406,-4.80468 1.99219,-6.32813 1.33789,-1.52342 3.18359,-2.28514 5.53711,-2.28515"
           id="path4365" />
        <path
           d="m 295.29199,324.52747 2.69531,0 0,16.69922 c 0,2.08984 -0.40039,3.60352 -1.20117,4.54102 -0.79102,0.93749 -2.07031,1.40624 -3.83789,1.40625 l -1.02539,0 0,-2.28516 0.71777,0 c 1.02539,0 1.72364,-0.23926 2.09473,-0.71777 0.37109,-0.46875 0.55664,-1.4502 0.55664,-2.94434 l 0,-16.69922 m 0,-6.38671 2.69531,0 0,3.41308 -2.69531,0 0,-3.41308"
           id="path4367" />
        <path
           d="m 309.96973,326.41712 c -1.44532,2e-5 -2.5879,0.56642 -3.42774,1.69922 -0.83985,1.12306 -1.25977,2.66603 -1.25976,4.62891 -1e-5,1.9629 0.41503,3.51075 1.24511,4.64355 0.83984,1.12305 1.9873,1.68458 3.44239,1.68457 1.43553,10e-6 2.57323,-0.5664 3.41308,-1.69922 0.83983,-1.1328 1.25975,-2.67577 1.25977,-4.6289 -2e-5,-1.94335 -0.41994,-3.48144 -1.25977,-4.61426 -0.83985,-1.14256 -1.97755,-1.71385 -3.41308,-1.71387 m 0,-2.28515 c 2.34374,10e-6 4.18455,0.76173 5.52246,2.28515 1.33787,1.52345 2.00682,3.63283 2.00683,6.32813 -10e-6,2.68555 -0.66896,4.79492 -2.00683,6.32812 -1.33791,1.52344 -3.17872,2.28516 -5.52246,2.28516 -2.35353,0 -4.19923,-0.76172 -5.53711,-2.28516 -1.32813,-1.5332 -1.99219,-3.64257 -1.99219,-6.32812 0,-2.6953 0.66406,-4.80468 1.99219,-6.32813 1.33788,-1.52342 3.18358,-2.28514 5.53711,-2.28515"
           id="path4369" />
        <path
           d="m 324.61816,319.86927 0,4.6582 5.55176,0 0,2.09473 -5.55176,0 0,8.90625 c 0,1.3379 0.18066,2.19727 0.542,2.57813 0.37108,0.38086 1.11815,0.57129 2.24121,0.57129 l 2.76855,0 0,2.25585 -2.76855,0 c -2.08009,0 -3.51563,-0.38574 -4.30664,-1.15722 -0.79102,-0.78125 -1.18653,-2.19726 -1.18653,-4.24805 l 0,-8.90625 -1.97754,0 0,-2.09473 1.97754,0 0,-4.6582 2.70996,0"
           id="path4371" />
        <path
           d="m 340.08691,326.41712 c -1.44532,2e-5 -2.58789,0.56642 -3.42773,1.69922 -0.83985,1.12306 -1.25977,2.66603 -1.25977,4.62891 0,1.9629 0.41504,3.51075 1.24512,4.64355 0.83984,1.12305 1.9873,1.68458 3.44238,1.68457 1.43554,10e-6 2.57323,-0.5664 3.41309,-1.69922 0.83983,-1.1328 1.25975,-2.67577 1.25977,-4.6289 -2e-5,-1.94335 -0.41994,-3.48144 -1.25977,-4.61426 -0.83986,-1.14256 -1.97755,-1.71385 -3.41309,-1.71387 m 0,-2.28515 c 2.34374,10e-6 4.18456,0.76173 5.52246,2.28515 1.33788,1.52345 2.00682,3.63283 2.00684,6.32813 -2e-5,2.68555 -0.66896,4.79492 -2.00684,6.32812 -1.3379,1.52344 -3.17872,2.28516 -5.52246,2.28516 -2.35352,0 -4.19922,-0.76172 -5.53711,-2.28516 -1.32812,-1.5332 -1.99218,-3.64257 -1.99218,-6.32812 0,-2.6953 0.66406,-4.80468 1.99218,-6.32813 1.33789,-1.52342 3.18359,-2.28514 5.53711,-2.28515"
           id="path4373" />
        <path
           d="m 364.84277,327.67689 c 0.67382,-1.21092 1.47948,-2.10448 2.417,-2.68067 0.93748,-0.57615 2.04099,-0.86424 3.31054,-0.86425 1.70896,10e-6 3.02732,0.6006 3.95508,1.80175 0.92771,1.19142 1.39158,2.89064 1.3916,5.09766 l 0,9.90234 -2.70996,0 0,-9.81445 c -2e-5,-1.57225 -0.27834,-2.73924 -0.83496,-3.50097 -0.55666,-0.76171 -1.40627,-1.14257 -2.54883,-1.14258 -1.3965,10e-6 -2.50002,0.46388 -3.31054,1.3916 -0.81057,0.92775 -1.21584,2.19239 -1.21583,3.79394 l 0,9.27246 -2.70996,0 0,-9.81445 c -10e-6,-1.58202 -0.27833,-2.74901 -0.83496,-3.50097 -0.55665,-0.76171 -1.41602,-1.14257 -2.57812,-1.14258 -1.37696,10e-6 -2.47071,0.46876 -3.28125,1.40625 -0.81055,0.92774 -1.21583,2.18751 -1.21582,3.77929 l 0,9.27246 -2.70996,0 0,-16.40625 2.70996,0 0,2.54883 c 0.61523,-1.00584 1.35253,-1.74803 2.21191,-2.22656 0.85937,-0.4785 1.87988,-0.71776 3.06153,-0.71777 1.19139,10e-6 2.20213,0.30275 3.03222,0.9082 0.83983,0.60548 1.45995,1.48439 1.86035,2.63672"
           id="path4375" />
        <path
           d="m 395.34082,332.05677 0,1.31836 -12.39258,0 c 0.11719,1.85548 0.67383,3.27149 1.66992,4.24805 1.00586,0.9668 2.40234,1.4502 4.18946,1.45019 1.03514,10e-6 2.03612,-0.12695 3.00293,-0.38086 0.97655,-0.2539 1.94334,-0.63476 2.90039,-1.14257 l 0,2.54882 c -0.96681,0.41016 -1.95802,0.72266 -2.97364,0.9375 -1.01563,0.21485 -2.0459,0.32227 -3.09082,0.32227 -2.61719,0 -4.69238,-0.76172 -6.22558,-2.28516 -1.52344,-1.52343 -2.28516,-3.58398 -2.28516,-6.18164 0,-2.68553 0.72266,-4.81444 2.16797,-6.38672 1.45507,-1.58201 3.41308,-2.37303 5.87402,-2.37304 2.20702,10e-6 3.95019,0.7129 5.2295,2.13867 1.28904,1.41603 1.93357,3.34474 1.93359,5.78613 m -2.69531,-0.79101 c -0.0195,-1.4746 -0.43459,-2.65136 -1.24512,-3.53028 -0.80079,-0.87889 -1.86524,-1.31834 -3.19336,-1.31836 -1.50391,2e-5 -2.70997,0.42482 -3.61816,1.27442 -0.89845,0.84962 -1.41602,2.04591 -1.55274,3.58886 l 9.60938,-0.0146"
           id="path4377" />
        <path
           d="m 402.43066,319.86927 0,4.6582 5.55176,0 0,2.09473 -5.55176,0 0,8.90625 c 0,1.3379 0.18066,2.19727 0.542,2.57813 0.37108,0.38086 1.11815,0.57129 2.24121,0.57129 l 2.76855,0 0,2.25585 -2.76855,0 c -2.08009,0 -3.51563,-0.38574 -4.30664,-1.15722 -0.79102,-0.78125 -1.18653,-2.19726 -1.18653,-4.24805 l 0,-8.90625 -1.97754,0 0,-2.09473 1.97754,0 0,-4.6582 2.70996,0"
           id="path4379" />
        <path
           d="m 425.5752,332.05677 0,1.31836 -12.39258,0 c 0.11718,1.85548 0.67382,3.27149 1.66992,4.24805 1.00585,0.9668 2.40233,1.4502 4.18945,1.45019 1.03515,10e-6 2.03612,-0.12695 3.00293,-0.38086 0.97655,-0.2539 1.94335,-0.63476 2.90039,-1.14257 l 0,2.54882 c -0.96681,0.41016 -1.95802,0.72266 -2.97363,0.9375 -1.01564,0.21485 -2.04591,0.32227 -3.09082,0.32227 -2.6172,0 -4.69239,-0.76172 -6.22559,-2.28516 -1.52344,-1.52343 -2.28515,-3.58398 -2.28515,-6.18164 0,-2.68553 0.72265,-4.81444 2.16797,-6.38672 1.45507,-1.58201 3.41307,-2.37303 5.87402,-2.37304 2.20702,10e-6 3.95018,0.7129 5.22949,2.13867 1.28905,1.41603 1.93358,3.34474 1.9336,5.78613 m -2.69532,-0.79101 c -0.0195,-1.4746 -0.43458,-2.65136 -1.24511,-3.53028 -0.8008,-0.87889 -1.86525,-1.31834 -3.19336,-1.31836 -1.50392,2e-5 -2.70997,0.42482 -3.61817,1.27442 -0.89844,0.84962 -1.41602,2.04591 -1.55273,3.58886 l 9.60937,-0.0146"
           id="path4381" />
        <path
           d="m 439.50586,327.04701 c -0.30275,-0.17577 -0.63478,-0.30272 -0.99609,-0.38086 -0.35158,-0.0879 -0.7422,-0.13182 -1.17188,-0.13184 -1.52345,2e-5 -2.69532,0.49806 -3.51562,1.49414 -0.81056,0.98634 -1.21583,2.40724 -1.21582,4.2627 l 0,8.64257 -2.70997,0 0,-16.40625 2.70997,0 0,2.54883 c 0.5664,-0.99608 1.3037,-1.73338 2.21191,-2.21191 0.90819,-0.48827 2.01171,-0.73241 3.31055,-0.73242 0.18553,10e-6 0.39061,0.0147 0.61523,0.0439 0.2246,0.0196 0.47362,0.0537 0.74707,0.10254 l 0.0146,2.76856"
           id="path4383" />
      </g>
    </g>
  </g>
  <defs
     id="defs230">
    <clipPath
       id="p59093bc8e4">
      <rect
         width="334.79999"
         height="217.44"
         x="54"
         y="34.560001"
         id="rect233"
         style="stroke-linecap:butt;stroke-linejoin:round" />
    </clipPath>
  </defs>
</svg>
