<?xml version="1.0" encoding="UTF-8" standalone="no"?>
<!-- Created with matplotlib (http://matplotlib.org/) -->

<svg
   xmlns:dc="http://purl.org/dc/elements/1.1/"
   xmlns:cc="http://creativecommons.org/ns#"
   xmlns:rdf="http://www.w3.org/1999/02/22-rdf-syntax-ns#"
   xmlns:svg="http://www.w3.org/2000/svg"
   xmlns="http://www.w3.org/2000/svg"
   xmlns:sodipodi="http://sodipodi.sourceforge.net/DTD/sodipodi-0.dtd"
   xmlns:inkscape="http://www.inkscape.org/namespaces/inkscape"
   height="317.16998"
   version="1.1"
   viewBox="0 0 544.04237 253.73599"
   width="680.05298"
   id="svg2"
   inkscape:version="0.48.5 r10040"
   sodipodi:docname="regions.svg">
  <metadata
     id="metadata383">
    <rdf:RDF>
      <cc:Work
         rdf:about="">
        <dc:format>image/svg+xml</dc:format>
        <dc:type
           rdf:resource="http://purl.org/dc/dcmitype/StillImage" />
        <dc:title></dc:title>
      </cc:Work>
    </rdf:RDF>
  </metadata>
  <sodipodi:namedview
     pagecolor="#ffffff"
     bordercolor="#666666"
     borderopacity="1"
     objecttolerance="10"
     gridtolerance="10"
     guidetolerance="10"
     inkscape:pageopacity="0"
     inkscape:pageshadow="2"
     inkscape:window-width="1359"
     inkscape:window-height="714"
     id="namedview381"
     showgrid="false"
     fit-margin-top="0"
     fit-margin-left="0"
     fit-margin-right="0"
     fit-margin-bottom="0"
     inkscape:zoom="1.1954919"
     inkscape:cx="340.02554"
     inkscape:cy="158.58068"
     inkscape:window-x="0"
     inkscape:window-y="25"
     inkscape:window-maximized="1"
     inkscape:current-layer="figure_1" />
  <defs
     id="defs4"
     style="stroke-linecap:butt;stroke-linejoin:round">
    <marker
       inkscape:stockid="Arrow2Lend"
       orient="auto"
       refY="0"
       refX="0"
       id="Arrow2Lend"
       style="stroke-linecap:butt;stroke-linejoin:round;overflow:visible">
      <path
         id="path4712"
         style="fill-rule:evenodd;stroke-width:0.625;stroke-linecap:butt;stroke-linejoin:round"
         d="M 8.7185878,4.0337352 -2.2072895,0.01601326 8.7185884,-4.0017078 c -1.7454984,2.3720609 -1.7354408,5.6174519 -6e-7,8.035443 z"
         transform="matrix(-1.1,0,0,-1.1,-1.1,0)"
         inkscape:connector-curvature="0" />
    </marker>
    <marker
       inkscape:stockid="Arrow1Mend"
       orient="auto"
       refY="0"
       refX="0"
       id="Arrow1Mend"
       style="stroke-linecap:butt;stroke-linejoin:round;overflow:visible">
      <path
         id="path4700"
         d="M 0,0 5,-5 -12.5,0 5,5 0,0 z"
         style="fill-rule:evenodd;stroke:#000000;stroke-width:1pt;stroke-linecap:butt;stroke-linejoin:round"
         transform="matrix(-0.4,0,0,-0.4,-4,0)"
         inkscape:connector-curvature="0" />
    </marker>
    <style
       type="text/css"
       id="style6">
*{stroke-linecap:butt;stroke-linejoin:round;}
  </style>
    <marker
       inkscape:stockid="Arrow2Lend"
       orient="auto"
       refY="0"
       refX="0"
       id="Arrow2Lend-2"
       style="stroke-linecap:butt;stroke-linejoin:round;overflow:visible">
      <path
         inkscape:connector-curvature="0"
         id="path4712-7"
         style="fill-rule:evenodd;stroke-width:0.625;stroke-linecap:butt;stroke-linejoin:round"
         d="M 8.7185878,4.0337352 -2.2072895,0.01601326 8.7185884,-4.0017078 c -1.7454984,2.3720609 -1.7354408,5.6174519 -6e-7,8.035443 z"
         transform="matrix(-1.1,0,0,-1.1,-1.1,0)" />
    </marker>
    <marker
       inkscape:stockid="Arrow2Lend"
       orient="auto"
       refY="0"
       refX="0"
       id="Arrow2Lend-6"
       style="stroke-linecap:butt;stroke-linejoin:round;overflow:visible">
      <path
         inkscape:connector-curvature="0"
         id="path4712-2"
         style="fill-rule:evenodd;stroke-width:0.625;stroke-linecap:butt;stroke-linejoin:round"
         d="M 8.7185878,4.0337352 -2.2072895,0.01601326 8.7185884,-4.0017078 c -1.7454984,2.3720609 -1.7354408,5.6174519 -6e-7,8.035443 z"
         transform="matrix(-1.1,0,0,-1.1,-1.1,0)" />
    </marker>
  </defs>
  <g
     id="figure_1"
     style="stroke-linecap:butt;stroke-linejoin:round"
     transform="translate(145.06249,-24.53125)">
    <g
       id="g5482"
       style="stroke-linecap:butt;stroke-linejoin:round">
      <rect
         ry="12.918126"
         y="31.303045"
         x="-136.74243"
         height="246.9642"
         width="535.72229"
         id="rect5404"
         style="fill:#999899;fill-opacity:1;stroke:none" />
      <rect
         ry="12.918126"
         y="25.858158"
         x="-143.74399"
         height="246.9642"
         width="535.72229"
         id="rect5404-1"
         style="fill:#fffdff;fill-opacity:1;stroke:#1c31ff;stroke-width:2.6400001;stroke-linecap:butt;stroke-linejoin:round;stroke-miterlimit:10.43299961;stroke-opacity:1;stroke-dasharray:none;stroke-dashoffset:0" />
    </g>
    <path
       clip-path="url(#p359f862b02)"
       d="m 105.26124,243.72828 -3.20382,-0.4919 -3.203831,-0.631 -3.947033,-1.00921 -3.21788,-1.04038 -2.666154,-1.04038 -2.984244,-1.40359 -3.203828,-1.8553 -2.701936,-1.94303 -2.103806,-1.83719 -1.601914,-1.66313 -1.601914,-1.97781 -1.601913,-2.44975 -0.773298,-1.43556 -0.932311,-2.08077 -0.728675,-2.08076 -0.555508,-2.08077 -0.395732,-2.08076 -0.326986,-3.12115 -0.04412,-3.12115 0.20819,-3.12115 0.436017,-3.12115 0.645681,-3.12115 0.864831,-3.2167 1.361217,-4.06598 1.680571,-4.16153 1.950046,-4.16153 2.202493,-4.16153 2.440065,-4.16153 3.180919,-4.92277 2.37178,-3.40029 3.900962,-5.20192 4.218431,-5.20191 4.527455,-5.20191 4.831365,-5.20192 5.13263,-5.20191 5.45374,-5.22052 6.40765,-5.79022 5.35531,-4.595 6.36188,-5.20192 7.50578,-5.81932 6.40765,-4.72424 8.00957,-5.61775 8.00957,-5.3251 8.00957,-5.053616 8.00957,-4.798841 8.94856,-5.074527 7.75094,-4.161531 8.17708,-4.161531 7.1617,-3.456407 8.39334,-3.826273 7.6258,-3.269921 8.00957,-3.218943 8.00957,-2.995626 8.72275,-3.000103 7.29639,-2.296028 8.00957,-2.281475 8.00957,-2.019152 7.95092,-1.726407 5.63087,-1.040383 5.64117,-0.884008 6.40766,-0.78829 6.40765,-0.538692 6.40766,-0.256087 4.80574,0.01702 4.80574,0.221086 4.80574,0.456685 4.8199,0.731898 4.72204,1.040383 1.67146,0.459626 3.20383,1.032404 3.20382,1.27016 3.20383,1.564972 3.20383,1.948833 2.6944,2.047067 2.11134,1.96055 1.60192,1.78976 1.11494,1.451604 1.34614,2.080766 1.09366,2.080765 0.8731,2.080766 0.68098,2.080765 0.5084,2.080766 0.48028,3.121148 0.17805,3.121149 -0.0898,3.121148 -0.32938,3.121148 -0.5459,3.121149 -0.74483,3.121148 -0.92991,3.121148 -1.50521,4.161531 -1.78674,4.161536 -2.04897,4.16153 -2.29607,4.16153 -2.52902,4.16153 -3.08124,4.63467 -3.41266,4.72878 -4.06381,5.20191 -4.37648,5.20192 -4.6826,5.20191 -4.98486,5.20191 -5.71212,5.60784 -5.16135,4.79599 -6.05205,5.3379 -6.40765,5.3599 -6.40766,5.09544 -6.619,5.01442 -7.79823,5.61357 -8.00956,5.46472 -8.00957,5.18351 -8.00957,4.92112 -8.28036,4.82665 -7.73878,4.28257 -8.00957,4.20704 -8.03298,3.99498 -8.88798,4.16153 -7.10775,3.13633 -8.00957,3.32635 -8.00957,3.10497 -8.12049,2.91694 -7.89865,2.60821 -8.00957,2.40399 -8.00957,2.14909 -8.00957,1.87746 -6.80587,1.36508 -6.15449,1.04038 -6.2626,0.85039 -6.40766,0.63099 -6.40765,0.36207 -4.80574,0.0726 -4.80575,-0.12078 -4.80574,-0.33992 -3.20383,-0.36365 0,0"
       style="fill:#ffaaaa;fill-opacity:0.7360406;stroke:#ff0000;stroke-width:1.5;stroke-linecap:butt;stroke-linejoin:round"
       id="path353"
       inkscape:connector-curvature="0" />
    <g
       style="stroke-linecap:butt;stroke-linejoin:round"
       id="PathCollection_2">
      <path
         inkscape:connector-curvature="0"
         id="path20"
         style="fill:#f2f2c9;stroke-linecap:butt;stroke-linejoin:round"
         d="m 199.77416,174.85562 1.60192,0 1.36162,-0.88433 0.24029,-0.15606 1.36163,-0.88432 0.24028,-0.15606 1.60192,0 1.36162,-0.88432 0.24029,-0.15606 1.36163,-0.88433 0.24029,-0.15605 1.60191,0 1.36163,-0.88433 0.24028,-0.15606 1.36163,-0.88432 0.24029,-0.15606 1.36162,-0.88433 0.24029,-0.15605 1.36163,-0.88433 0.24028,-0.15606 1.36163,-0.88432 0.24029,-0.15606 1.36163,-0.88432 0,-1.04039 0.24028,-0.15605 1.36163,-0.88433 0.24029,-0.15606 1.36162,-0.88432 0.24029,-0.15606 1.36163,-0.88432 0,-1.04039 0.24028,-0.15605 1.36163,-0.88433 0.24029,-0.15606 1.36162,-0.88432 0.24029,-0.15606 1.36163,-0.88433 0,-1.04038 0.24029,-0.15606 1.36162,-0.88432 0.24029,-0.15606 1.36163,-0.88432 0.24028,-0.15606 1.36163,-0.88433 0,-1.04038 0.24029,-0.15606 1.36162,-0.88432 0.24029,-0.15606 1.36163,-0.88433 0.24029,-0.15605 1.36162,-0.88433 0,-1.04038 0.24029,-0.15606 1.36163,-0.88432 0.24028,-0.15606 1.36163,-0.88433 0.24029,-0.15605 1.36162,-0.88433 0,-1.04038 0.24029,-0.15606 1.36163,-0.88432 0.24028,-0.15606 1.36163,-0.88433 0.24029,-0.15605 1.36163,-0.88433 0,-1.04038 0.24028,-0.15606 1.36163,-0.88433 0.24029,-0.15605 1.36162,-0.88433 0.24029,-0.15606 1.36163,-0.88432 0,-1.04038 0.24028,-0.15606 1.36163,-0.88433 0.24029,-0.15605 1.36162,-0.88433 0.24029,-0.15606 1.36163,-0.88432 0,-1.04039 0,-1.04038 -1.36163,-0.88432 -0.24029,-0.15606 -1.36162,-0.88433 -0.24029,-0.15605 -1.36163,-0.88433 -0.24028,-0.15606 -1.36163,-0.88432 -0.24029,-0.15606 -1.36162,-0.88432 -0.24029,-0.15606 -1.36163,-0.88433 -0.24028,-0.15605 -1.36163,-0.88433 -0.24029,-0.15606 -1.36163,-0.88432 -0.24028,-0.15606 -1.36163,-0.88432 -0.24029,-0.15606 -1.36162,-0.88433 -0.24029,-0.15605 -1.36163,-0.88433 -0.24028,-0.15606 -1.36163,-0.88432 -0.24029,-0.15606 -1.36162,-0.88433 -1.36163,0.88433 -0.24029,0.15606 -1.36163,0.88432 -0.24028,0.15606 -1.36163,0.88433 -0.24029,0.15605 -1.36162,0.88433 -0.24029,0.15606 -1.36163,0.88432 -0.24028,0.15606 -1.36163,0.88432 -0.24029,0.15606 -1.36162,0.88433 -0.24029,0.15605 -1.36163,0.88433 -0.24029,0.15606 -1.36162,0.88432 -0.24029,0.15606 -1.36163,0.88432 -0.24028,0.15606 -1.36163,0.88433 -0.24029,0.15605 -1.36162,0.88433 -0.24029,0.15606 -1.36163,0.88432 -0.24029,0.15606 -1.36162,0.88432 -0.24029,0.15606 -1.36162,0.88433 -0.24029,0.15606 -1.36163,0.88432 -0.24029,0.15606 -1.36162,0.88432 -0.24029,0.15606 -1.36163,0.88433 -0.24028,0.15605 -1.36163,0.88433 -0.24029,0.15606 -1.36163,0.88432 -0.24028,0.15606 -1.36163,0.88432 -0.24029,0.15606 -1.36162,0.88433 -0.24029,0.15605 -1.36163,0.88433 -0.24028,0.15606 -1.36163,0.88432 -0.24029,0.15606 -1.36162,0.88433 -0.24029,0.15605 -1.36163,0.88433 -0.24029,0.15606 -1.36162,0.88432 -0.24029,0.15606 -1.36163,0.88432 -0.24028,0.15606 -1.36163,0.88433 -0.24029,0.15605 -1.36162,0.88433 -0.24029,0.15606 -1.36163,0.88432 -0.24028,0.15606 -1.36163,0.88432 -0.24029,0.15606 -1.36163,0.88433 -0.24028,0.15605 -1.36163,0.88433 -0.24029,0.15606 -1.36162,0.88432 -0.24029,0.15606 -1.36163,0.88433 -0.24028,0.15605 -1.36163,0.88433 -0.24029,0.15606 -1.36162,0.88432 -0.24029,0.15606 -1.36163,0.88432 -0.24029,0.15606 -1.36162,0.88433 0,1.04038 1.36162,0.88433 0.24029,0.15605 1.36163,0.88433 0.24029,0.15606 1.36162,0.88432 0.24029,0.15606 1.36163,0.88432 0.24028,0.15606 1.36163,0.88433 0.24029,0.15605 1.36162,0.88433 0.24029,0.15606 1.36163,0.88432 0.24028,0.15606 1.36163,0.88432 0.24029,0.15606 1.36163,0.88433 0.24028,0.15605 1.36163,0.88433 0.24029,0.15606 1.36162,0.88432 0.24029,0.15606 1.36163,0.88433 0.24028,0.15605 1.36163,0.88433 0.24029,0.15606 1.36162,0.88432 0.24029,0.15606 1.36163,0.88432 0.24029,0.15606 z m -1.12134,-0.88433 -0.48057,-0.31211 -1.12134,-0.72827 -0.48058,-0.31212 -1.12134,-0.72826 -0.48057,-0.31212 -1.12134,-0.72827 -0.48057,-0.31211 -1.12134,-0.72827 -0.48058,-0.31211 -1.12134,-0.72827 -0.48057,-0.31212 -1.12134,-0.72827 -0.48057,-0.31211 -1.12134,-0.72827 -0.48058,-0.31211 -1.12134,-0.72827 -0.48057,-0.31212 -1.12134,-0.72826 -0.48058,-0.31212 -1.12134,-0.72827 -0.48057,-0.31211 -1.12134,-0.72827 -0.48057,-0.31211 -1.12134,-0.72827 -0.48058,-0.31212 -1.12134,-0.72826 -0.48057,-0.31212 -1.12134,-0.72827 -0.48058,-0.31211 -1.12134,-0.72827 0,-1.04038 1.12134,-0.72827 0.48058,-0.31212 1.12134,-0.72826 0.48057,-0.31212 1.12134,-0.72827 0.48058,-0.31211 1.12134,-0.72827 0.48057,-0.31211 1.12134,-0.72827 0.48057,-0.31212 1.12134,-0.72826 0.48058,-0.31212 1.12134,-0.72827 0.48057,-0.31211 1.12134,-0.72827 0.48058,-0.31212 1.12134,-0.72826 0.48057,-0.31212 1.12134,-0.72827 0.48057,-0.31211 1.12134,-0.72827 0.48058,-0.31211 1.12134,-0.72827 0.48057,-0.31212 1.12134,-0.72826 0.48057,-0.31212 1.12134,-0.72827 0.48058,-0.31211 1.12134,-0.72827 0.48057,-0.31211 1.12134,-0.72827 0.48058,-0.31212 1.12134,-0.72827 0.48057,-0.31211 1.12134,-0.72827 0.48057,-0.31211 1.12134,-0.72827 0.48058,-0.31212 1.12134,-0.72826 0.48057,-0.31212 1.12134,-0.72827 0.48058,-0.31211 1.12134,-0.72827 0.48057,-0.31211 1.12134,-0.72827 0.48057,-0.31212 1.12134,-0.72826 0.48058,-0.31212 1.12134,-0.72827 0.48057,-0.31211 1.12134,-0.72827 0.48058,-0.31212 1.12133,-0.72826 0.48058,-0.31212 1.12134,-0.72827 0.48057,-0.31211 1.12134,-0.72827 0.48058,-0.31211 1.12134,-0.72827 0.48057,-0.31212 1.12134,-0.72826 0.48057,-0.31212 1.12134,-0.72827 0.48058,-0.31211 1.12134,-0.72827 0.48057,-0.31211 1.12134,-0.72827 0.48058,-0.31212 1.12134,-0.72827 0.48057,-0.31211 1.12134,-0.72827 0.48057,-0.31211 1.12134,-0.72827 0.48058,-0.31211 1.12134,-0.72827 0.48057,-0.31212 1.12134,-0.72827 0.48058,-0.31211 1.12134,-0.72827 1.12133,0.72827 0.48058,0.31211 1.12134,0.72827 0.48057,0.31212 1.12134,0.72827 0.48058,0.31211 1.12134,0.72827 0.48057,0.31211 1.12134,0.72827 0.48057,0.31211 1.12134,0.72827 0.48058,0.31212 1.12134,0.72827 0.48057,0.31211 1.12134,0.72827 0.48058,0.31211 1.12134,0.72827 0.48057,0.31212 1.12134,0.72826 0.48057,0.31212 1.12134,0.72827 0.48058,0.31211 1.12134,0.72827 0.48057,0.31211 1.12134,0.72827 0,1.04038 0,1.04039 -1.12134,0.72827 -0.48057,0.31211 -1.12134,0.72827 -0.48058,0.31211 -1.12134,0.72827 -0.48057,0.31212 0,1.04038 -1.12134,0.72827 -0.48057,0.31211 -1.12134,0.72827 -0.48058,0.31211 -1.12134,0.72827 -0.48057,0.31212 0,1.04038 -1.12134,0.72827 -0.48058,0.31211 -1.12134,0.72827 -0.48057,0.31212 -1.12134,0.72826 -0.48057,0.31212 0,1.04038 -1.12134,0.72827 -0.48058,0.31211 -1.12134,0.72827 -0.48057,0.31212 -1.12134,0.72826 -0.48058,0.31212 0,1.04038 -1.12133,0.72827 -0.48058,0.31211 -1.12134,0.72827 -0.48057,0.31212 -1.12134,0.72827 -0.48058,0.31211 0,1.04038 -1.12134,0.72827 -0.48057,0.31212 -1.12134,0.72826 -0.48057,0.31212 -1.12134,0.72827 -0.48058,0.31211 0,1.04038 -1.12134,0.72827 -0.48057,0.31212 -1.12134,0.72826 -0.48058,0.31212 -1.12134,0.72827 -0.48057,0.31211 0,1.04039 -1.12134,0.72826 -0.48057,0.31212 -1.12134,0.72827 -0.48058,0.31211 -1.12134,0.72827 -0.48057,0.31211 0,1.04039 -1.12134,0.72826 -0.48058,0.31212 -1.12134,0.72827 -0.48057,0.31211 -1.12134,0.72827 -0.48057,0.31211 -1.12134,0.72827 -0.48058,0.31212 -1.12134,0.72827 -0.48057,0.31211 -1.12134,0.72827 -1.60191,0 -0.48058,0.31211 -1.12134,0.72827 -0.48057,0.31212 -1.12134,0.72826 -1.60192,0 -0.48057,0.31212 -1.12134,0.72827 -0.48057,0.31211 -1.12134,0.72827 -1.60192,0 z"
         clip-path="url(#p359f862b02)" />
    </g>
    <g
       style="stroke-linecap:butt;stroke-linejoin:round"
       id="PathCollection_3">
      <path
         inkscape:connector-curvature="0"
         id="path23"
         style="fill:#e8e8a4;stroke-linecap:butt;stroke-linejoin:round"
         d="m 199.77416,174.69956 1.60192,0 1.12134,-0.72827 0.48057,-0.31211 1.12134,-0.72827 0.48057,-0.31212 1.60192,0 1.12134,-0.72826 0.48057,-0.31212 1.12134,-0.72827 0.48058,-0.31211 1.60191,0 1.12134,-0.72827 0.48057,-0.31211 1.12134,-0.72827 0.48058,-0.31212 1.12134,-0.72827 0.48057,-0.31211 1.12134,-0.72827 0.48057,-0.31211 1.12134,-0.72827 0.48058,-0.31212 1.12134,-0.72826 0,-1.04039 0.48057,-0.31211 1.12134,-0.72827 0.48058,-0.31211 1.12134,-0.72827 0.48057,-0.31212 1.12134,-0.72826 0,-1.04039 0.48057,-0.31211 1.12134,-0.72827 0.48058,-0.31212 1.12134,-0.72826 0.48057,-0.31212 1.12134,-0.72827 0,-1.04038 0.48058,-0.31211 1.12134,-0.72827 0.48057,-0.31212 1.12134,-0.72826 0.48057,-0.31212 1.12134,-0.72827 0,-1.04038 0.48058,-0.31211 1.12134,-0.72827 0.48057,-0.31212 1.12134,-0.72827 0.48058,-0.31211 1.12133,-0.72827 0,-1.04038 0.48058,-0.31212 1.12134,-0.72826 0.48057,-0.31212 1.12134,-0.72827 0.48058,-0.31211 1.12134,-0.72827 0,-1.04038 0.48057,-0.31212 1.12134,-0.72826 0.48057,-0.31212 1.12134,-0.72827 0.48058,-0.31211 1.12134,-0.72827 0,-1.04038 0.48057,-0.31212 1.12134,-0.72827 0.48058,-0.31211 1.12134,-0.72827 0.48057,-0.31211 1.12134,-0.72827 0,-1.04038 0.48057,-0.31212 1.12134,-0.72827 0.48058,-0.31211 1.12134,-0.72827 0.48057,-0.31211 1.12134,-0.72827 0,-1.04039 0,-1.04038 -1.12134,-0.72827 -0.48057,-0.31211 -1.12134,-0.72827 -0.48058,-0.31211 -1.12134,-0.72827 -0.48057,-0.31212 -1.12134,-0.72826 -0.48057,-0.31212 -1.12134,-0.72827 -0.48058,-0.31211 -1.12134,-0.72827 -0.48057,-0.31211 -1.12134,-0.72827 -0.48058,-0.31212 -1.12134,-0.72827 -0.48057,-0.31211 -1.12134,-0.72827 -0.48057,-0.31211 -1.12134,-0.72827 -0.48058,-0.31211 -1.12134,-0.72827 -0.48057,-0.31212 -1.12134,-0.72827 -0.48058,-0.31211 -1.12133,-0.72827 -1.12134,0.72827 -0.48058,0.31211 -1.12134,0.72827 -0.48057,0.31212 -1.12134,0.72827 -0.48058,0.31211 -1.12134,0.72827 -0.48057,0.31211 -1.12134,0.72827 -0.48057,0.31211 -1.12134,0.72827 -0.48058,0.31212 -1.12134,0.72827 -0.48057,0.31211 -1.12134,0.72827 -0.48058,0.31211 -1.12134,0.72827 -0.48057,0.31212 -1.12134,0.72826 -0.48057,0.31212 -1.12134,0.72827 -0.48058,0.31211 -1.12134,0.72827 -0.48057,0.31211 -1.12134,0.72827 -0.48058,0.31212 -1.12133,0.72826 -0.48058,0.31212 -1.12134,0.72827 -0.48057,0.31211 -1.12134,0.72827 -0.48058,0.31212 -1.12134,0.72826 -0.48057,0.31212 -1.12134,0.72827 -0.48057,0.31211 -1.12134,0.72827 -0.48058,0.31211 -1.12134,0.72827 -0.48057,0.31212 -1.12134,0.72826 -0.48058,0.31212 -1.12134,0.72827 -0.48057,0.31211 -1.12134,0.72827 -0.48057,0.31211 -1.12134,0.72827 -0.48058,0.31212 -1.12134,0.72827 -0.48057,0.31211 -1.12134,0.72827 -0.48058,0.31211 -1.12134,0.72827 -0.48057,0.31212 -1.12134,0.72826 -0.48057,0.31212 -1.12134,0.72827 -0.48058,0.31211 -1.12134,0.72827 -0.48057,0.31211 -1.12134,0.72827 -0.48057,0.31212 -1.12134,0.72826 -0.48058,0.31212 -1.12134,0.72827 -0.48057,0.31211 -1.12134,0.72827 -0.48058,0.31212 -1.12134,0.72826 -0.48057,0.31212 -1.12134,0.72827 -0.48057,0.31211 -1.12134,0.72827 -0.48058,0.31211 -1.12134,0.72827 -0.48057,0.31212 -1.12134,0.72826 -0.48058,0.31212 -1.12134,0.72827 0,1.04038 1.12134,0.72827 0.48058,0.31211 1.12134,0.72827 0.48057,0.31212 1.12134,0.72826 0.48058,0.31212 1.12134,0.72827 0.48057,0.31211 1.12134,0.72827 0.48057,0.31211 1.12134,0.72827 0.48058,0.31212 1.12134,0.72826 0.48057,0.31212 1.12134,0.72827 0.48058,0.31211 1.12134,0.72827 0.48057,0.31211 1.12134,0.72827 0.48057,0.31212 1.12134,0.72827 0.48058,0.31211 1.12134,0.72827 0.48057,0.31211 1.12134,0.72827 0.48057,0.31212 1.12134,0.72826 0.48058,0.31212 1.12134,0.72827 0.48057,0.31211 z m -0.88105,-0.72827 -0.72086,-0.46817 -0.88105,-0.57221 -0.72087,-0.46817 -0.88105,-0.57221 -0.72086,-0.46818 -0.88105,-0.57221 -0.72086,-0.46817 -0.88106,-0.57221 -0.72086,-0.46817 -0.88105,-0.57221 -0.72086,-0.46817 -0.88105,-0.57222 -0.72086,-0.46817 -0.88106,-0.57221 -0.72086,-0.46817 -0.88105,-0.57221 -0.72086,-0.46817 -0.88106,-0.57221 -0.72086,-0.46818 -0.88105,-0.57221 -0.72086,-0.46817 -0.88105,-0.57221 -0.72086,-0.46817 -0.88106,-0.57221 -0.72086,-0.46817 -0.88105,-0.57221 -0.72086,-0.46818 -0.88105,-0.57221 -0.72087,-0.46817 -0.88105,-0.57221 0,-1.04038 0.88105,-0.57221 0.72087,-0.46818 0.88105,-0.57221 0.72086,-0.46817 0.88105,-0.57221 0.72086,-0.46817 0.88106,-0.57221 0.72086,-0.46817 0.88105,-0.57221 0.72086,-0.46818 0.88105,-0.57221 0.72086,-0.46817 0.88106,-0.57221 0.72086,-0.46817 0.88105,-0.57221 0.72086,-0.46818 0.88106,-0.57221 0.72086,-0.46817 0.88105,-0.57221 0.72086,-0.46817 0.88105,-0.57221 0.72086,-0.46817 0.88106,-0.57221 0.72086,-0.46818 0.88105,-0.57221 0.72086,-0.46817 0.88105,-0.57221 0.72087,-0.46817 0.88105,-0.57221 0.72086,-0.46817 0.88105,-0.57222 0.72086,-0.46817 0.88106,-0.57221 0.72086,-0.46817 0.88105,-0.57221 0.72086,-0.46817 0.88105,-0.57221 0.72087,-0.46818 0.88105,-0.57221 0.72086,-0.46817 0.88105,-0.57221 0.72086,-0.46817 0.88106,-0.57221 0.72086,-0.46817 0.88105,-0.57221 0.72086,-0.46818 0.88105,-0.57221 0.72086,-0.46817 0.88106,-0.57221 0.72086,-0.46817 0.88105,-0.57221 0.72086,-0.46818 0.88105,-0.57221 0.72087,-0.46817 0.88105,-0.57221 0.72086,-0.46817 0.88105,-0.57221 0.72086,-0.46817 0.88106,-0.57221 0.72086,-0.46818 0.88105,-0.57221 0.72086,-0.46817 0.88105,-0.57221 0.72087,-0.46817 0.88105,-0.57221 0.72086,-0.46817 0.88105,-0.57221 0.72086,-0.46818 0.88106,-0.57221 0.72086,-0.46817 0.88105,-0.57221 0.72086,-0.46817 0.88105,-0.57221 0.72086,-0.46817 0.88106,-0.57222 0.72086,-0.46817 0.88105,-0.57221 0.72086,-0.46817 0.88106,-0.57221 0.88105,0.57221 0.72086,0.46817 0.88105,0.57221 0.72086,0.46817 0.88106,0.57222 0.72086,0.46817 0.88105,0.57221 0.72086,0.46817 0.88105,0.57221 0.72086,0.46817 0.88106,0.57221 0.72086,0.46818 0.88105,0.57221 0.72086,0.46817 0.88105,0.57221 0.72087,0.46817 0.88105,0.57221 0.72086,0.46817 0.88105,0.57221 0.72086,0.46818 0.88106,0.57221 0.72086,0.46817 0.88105,0.57221 0.72086,0.46817 0.88105,0.57221 0,1.04038 0,1.04039 -0.88105,0.57221 -0.72086,0.46817 -0.88105,0.57221 -0.72086,0.46817 -0.88106,0.57221 -0.72086,0.46818 0,1.04038 -0.88105,0.57221 -0.72086,0.46817 -0.88105,0.57221 -0.72087,0.46817 -0.88105,0.57221 -0.72086,0.46818 0,1.04038 -0.88105,0.57221 -0.72086,0.46817 -0.88106,0.57221 -0.72086,0.46818 -0.88105,0.57221 -0.72086,0.46817 0,1.04038 -0.88105,0.57221 -0.72086,0.46817 -0.88106,0.57222 -0.72086,0.46817 -0.88105,0.57221 -0.72086,0.46817 0,1.04038 -0.88105,0.57221 -0.72087,0.46817 -0.88105,0.57222 -0.72086,0.46817 -0.88105,0.57221 -0.72086,0.46817 0,1.04038 -0.88106,0.57221 -0.72086,0.46818 -0.88105,0.57221 -0.72086,0.46817 -0.88105,0.57221 -0.72087,0.46817 0,1.04038 -0.88105,0.57221 -0.72086,0.46818 -0.88105,0.57221 -0.72086,0.46817 -0.88106,0.57221 -0.72086,0.46817 0,1.04039 -0.88105,0.57221 -0.72086,0.46817 -0.88105,0.57221 -0.72086,0.46817 -0.88106,0.57221 -0.72086,0.46817 0,1.04039 -0.88105,0.57221 -0.72086,0.46817 -0.88106,0.57221 -0.72086,0.46817 -0.88105,0.57221 -0.72086,0.46817 -0.88105,0.57222 -0.72086,0.46817 -0.88106,0.57221 -0.72086,0.46817 -0.88105,0.57221 -1.60191,0 -0.72087,0.46817 -0.88105,0.57221 -0.72086,0.46818 -0.88105,0.57221 -1.60192,0 -0.72086,0.46817 -0.88105,0.57221 -0.72086,0.46817 -0.88105,0.57221 -1.60192,0 z"
         clip-path="url(#p359f862b02)" />
    </g>
    <g
       style="stroke-linecap:butt;stroke-linejoin:round"
       id="PathCollection_4">
      <path
         inkscape:connector-curvature="0"
         id="path26"
         style="fill:#dfdf7f;stroke-linecap:butt;stroke-linejoin:round"
         d="m 199.77416,174.5435 1.60192,0 0.88105,-0.57221 0.72086,-0.46817 0.88105,-0.57221 0.72086,-0.46817 1.60192,0 0.88105,-0.57221 0.72086,-0.46818 0.88105,-0.57221 0.72087,-0.46817 1.60191,0 0.88105,-0.57221 0.72086,-0.46817 0.88106,-0.57221 0.72086,-0.46817 0.88105,-0.57222 0.72086,-0.46817 0.88105,-0.57221 0.72086,-0.46817 0.88106,-0.57221 0.72086,-0.46817 0.88105,-0.57221 0,-1.04039 0.72086,-0.46817 0.88106,-0.57221 0.72086,-0.46817 0.88105,-0.57221 0.72086,-0.46817 0.88105,-0.57221 0,-1.04039 0.72086,-0.46817 0.88106,-0.57221 0.72086,-0.46817 0.88105,-0.57221 0.72086,-0.46818 0.88105,-0.57221 0,-1.04038 0.72087,-0.46817 0.88105,-0.57221 0.72086,-0.46817 0.88105,-0.57221 0.72086,-0.46818 0.88106,-0.57221 0,-1.04038 0.72086,-0.46817 0.88105,-0.57221 0.72086,-0.46817 0.88105,-0.57222 0.72087,-0.46817 0.88105,-0.57221 0,-1.04038 0.72086,-0.46817 0.88105,-0.57221 0.72086,-0.46817 0.88106,-0.57222 0.72086,-0.46817 0.88105,-0.57221 0,-1.04038 0.72086,-0.46817 0.88105,-0.57221 0.72086,-0.46818 0.88106,-0.57221 0.72086,-0.46817 0.88105,-0.57221 0,-1.04038 0.72086,-0.46818 0.88105,-0.57221 0.72087,-0.46817 0.88105,-0.57221 0.72086,-0.46817 0.88105,-0.57221 0,-1.04038 0.72086,-0.46818 0.88106,-0.57221 0.72086,-0.46817 0.88105,-0.57221 0.72086,-0.46817 0.88105,-0.57221 0,-1.04039 0,-1.04038 -0.88105,-0.57221 -0.72086,-0.46817 -0.88105,-0.57221 -0.72086,-0.46817 -0.88106,-0.57221 -0.72086,-0.46818 -0.88105,-0.57221 -0.72086,-0.46817 -0.88105,-0.57221 -0.72087,-0.46817 -0.88105,-0.57221 -0.72086,-0.46817 -0.88105,-0.57221 -0.72086,-0.46818 -0.88106,-0.57221 -0.72086,-0.46817 -0.88105,-0.57221 -0.72086,-0.46817 -0.88105,-0.57221 -0.72086,-0.46817 -0.88106,-0.57222 -0.72086,-0.46817 -0.88105,-0.57221 -0.72086,-0.46817 -0.88105,-0.57221 -0.88106,0.57221 -0.72086,0.46817 -0.88105,0.57221 -0.72086,0.46817 -0.88106,0.57222 -0.72086,0.46817 -0.88105,0.57221 -0.72086,0.46817 -0.88105,0.57221 -0.72086,0.46817 -0.88106,0.57221 -0.72086,0.46818 -0.88105,0.57221 -0.72086,0.46817 -0.88105,0.57221 -0.72087,0.46817 -0.88105,0.57221 -0.72086,0.46817 -0.88105,0.57221 -0.72086,0.46818 -0.88106,0.57221 -0.72086,0.46817 -0.88105,0.57221 -0.72086,0.46817 -0.88105,0.57221 -0.72087,0.46817 -0.88105,0.57221 -0.72086,0.46818 -0.88105,0.57221 -0.72086,0.46817 -0.88106,0.57221 -0.72086,0.46817 -0.88105,0.57221 -0.72086,0.46818 -0.88105,0.57221 -0.72086,0.46817 -0.88106,0.57221 -0.72086,0.46817 -0.88105,0.57221 -0.72086,0.46817 -0.88105,0.57221 -0.72087,0.46818 -0.88105,0.57221 -0.72086,0.46817 -0.88105,0.57221 -0.72086,0.46817 -0.88106,0.57221 -0.72086,0.46817 -0.88105,0.57222 -0.72086,0.46817 -0.88105,0.57221 -0.72087,0.46817 -0.88105,0.57221 -0.72086,0.46817 -0.88105,0.57221 -0.72086,0.46818 -0.88106,0.57221 -0.72086,0.46817 -0.88105,0.57221 -0.72086,0.46817 -0.88105,0.57221 -0.72086,0.46817 -0.88106,0.57221 -0.72086,0.46818 -0.88105,0.57221 -0.72086,0.46817 -0.88106,0.57221 -0.72086,0.46817 -0.88105,0.57221 -0.72086,0.46818 -0.88105,0.57221 -0.72086,0.46817 -0.88106,0.57221 -0.72086,0.46817 -0.88105,0.57221 -0.72086,0.46817 -0.88105,0.57221 -0.72087,0.46818 -0.88105,0.57221 0,1.04038 0.88105,0.57221 0.72087,0.46817 0.88105,0.57221 0.72086,0.46818 0.88105,0.57221 0.72086,0.46817 0.88106,0.57221 0.72086,0.46817 0.88105,0.57221 0.72086,0.46817 0.88105,0.57221 0.72086,0.46818 0.88106,0.57221 0.72086,0.46817 0.88105,0.57221 0.72086,0.46817 0.88106,0.57221 0.72086,0.46817 0.88105,0.57222 0.72086,0.46817 0.88105,0.57221 0.72086,0.46817 0.88106,0.57221 0.72086,0.46817 0.88105,0.57221 0.72086,0.46818 0.88105,0.57221 0.72087,0.46817 0.88105,0.57221 0.72086,0.46817 z m -0.64076,-0.57221 -0.96115,-0.62423 -0.64077,-0.41615 -0.96115,-0.62423 -0.64076,-0.41615 -0.96115,-0.62423 -0.64076,-0.41616 -0.96115,-0.62423 -0.64077,-0.41615 -0.96115,-0.62423 -0.64076,-0.41615 -0.96115,-0.62423 -0.64077,-0.41616 -0.96114,-0.62422 -0.64077,-0.41616 -0.96115,-0.62423 -0.64076,-0.41615 -0.96115,-0.62423 -0.64077,-0.41615 -0.96115,-0.62423 -0.64076,-0.41616 -0.96115,-0.62423 -0.64077,-0.41615 -0.96114,-0.62423 -0.64077,-0.41615 -0.96115,-0.62423 -0.64076,-0.41615 -0.96115,-0.62423 -0.64077,-0.41616 -0.96115,-0.62423 -0.64076,-0.41615 0,-1.04038 0.64076,-0.41616 0.96115,-0.62423 0.64077,-0.41615 0.96115,-0.62423 0.64076,-0.41615 0.96115,-0.62423 0.64077,-0.41615 0.96114,-0.62423 0.64077,-0.41616 0.96115,-0.62423 0.64076,-0.41615 0.96115,-0.62423 0.64077,-0.41615 0.96115,-0.62423 0.64076,-0.41616 0.96115,-0.62423 0.64077,-0.41615 0.96114,-0.62423 0.64077,-0.41615 0.96115,-0.62423 0.64076,-0.41615 0.96115,-0.62423 0.64077,-0.41616 0.96115,-0.62423 0.64076,-0.41615 0.96115,-0.62423 0.64076,-0.41615 0.96115,-0.62423 0.64077,-0.41615 0.96115,-0.62423 0.64076,-0.41616 0.96115,-0.62423 0.64077,-0.41615 0.96114,-0.62423 0.64077,-0.41615 0.96115,-0.62423 0.64076,-0.41616 0.96115,-0.62423 0.64077,-0.41615 0.96115,-0.62423 0.64076,-0.41615 0.96115,-0.62423 0.64077,-0.41615 0.96114,-0.62423 0.64077,-0.41616 0.96115,-0.62423 0.64076,-0.41615 0.96115,-0.62423 0.64077,-0.41615 0.96115,-0.62423 0.64076,-0.41616 0.96115,-0.62423 0.64076,-0.41615 0.96115,-0.62423 0.64077,-0.41615 0.96115,-0.62423 0.64076,-0.41615 0.96115,-0.62423 0.64077,-0.41616 0.96114,-0.62423 0.64077,-0.41615 0.96115,-0.62423 0.64076,-0.41615 0.96115,-0.62423 0.64077,-0.41615 0.96115,-0.62423 0.64076,-0.41616 0.96115,-0.62423 0.64077,-0.41615 0.96114,-0.62423 0.64077,-0.41615 0.96115,-0.62423 0.64076,-0.41616 0.96115,-0.62422 0.64077,-0.41616 0.96115,-0.62423 0.64076,-0.41615 0.96115,-0.62423 0.64077,-0.41615 0.64076,0.41615 0.96115,0.62423 0.64076,0.41615 0.96115,0.62423 0.64077,0.41616 0.96115,0.62422 0.64076,0.41616 0.96115,0.62423 0.64077,0.41615 0.96114,0.62423 0.64077,0.41615 0.96115,0.62423 0.64076,0.41616 0.96115,0.62423 0.64077,0.41615 0.96115,0.62423 0.64076,0.41615 0.96115,0.62423 0.64077,0.41615 0.96114,0.62423 0.64077,0.41616 0.96115,0.62423 0.64076,0.41615 0.96115,0.62423 0.64077,0.41615 0,1.04038 0,1.04039 -0.64077,0.41615 -0.96115,0.62423 -0.64076,0.41615 -0.96115,0.62423 -0.64077,0.41616 -0.96114,0.62423 0,1.04038 -0.64077,0.41615 -0.96115,0.62423 -0.64076,0.41615 -0.96115,0.62423 -0.64077,0.41616 -0.96115,0.62423 0,1.04038 -0.64076,0.41615 -0.96115,0.62423 -0.64077,0.41616 -0.96114,0.62423 -0.64077,0.41615 -0.96115,0.62423 0,1.04038 -0.64076,0.41615 -0.96115,0.62423 -0.64077,0.41616 -0.96115,0.62423 -0.64076,0.41615 -0.96115,0.62423 0,1.04038 -0.64076,0.41616 -0.96115,0.62422 -0.64077,0.41616 -0.96115,0.62423 -0.64076,0.41615 -0.96115,0.62423 0,1.04038 -0.64077,0.41616 -0.96114,0.62423 -0.64077,0.41615 -0.96115,0.62423 -0.64076,0.41615 -0.96115,0.62423 0,1.04038 -0.64077,0.41616 -0.96115,0.62423 -0.64076,0.41615 -0.96115,0.62423 -0.64077,0.41615 -0.96114,0.62423 0,1.04039 -0.64077,0.41615 -0.96115,0.62423 -0.64076,0.41615 -0.96115,0.62423 -0.64077,0.41615 -0.96115,0.62423 0,1.04039 -0.64076,0.41615 -0.96115,0.62423 -0.64077,0.41615 -0.96114,0.62423 -0.64077,0.41616 -0.96115,0.62422 -0.64076,0.41616 -0.96115,0.62423 -0.64077,0.41615 -0.96115,0.62423 -0.64076,0.41615 -1.60191,0 -0.96115,0.62423 -0.64077,0.41616 -0.96115,0.62423 -0.64076,0.41615 -1.60192,0 -0.96114,0.62423 -0.64077,0.41615 -0.96115,0.62423 -0.64076,0.41616 -1.60192,0 z"
         clip-path="url(#p359f862b02)" />
    </g>
    <g
       style="stroke-linecap:butt;stroke-linejoin:round"
       id="PathCollection_5">
      <path
         inkscape:connector-curvature="0"
         id="path29"
         style="fill:#d6d65b;stroke-linecap:butt;stroke-linejoin:round"
         d="m 199.77416,174.38745 1.60192,0 0.64076,-0.41616 0.96115,-0.62423 0.64077,-0.41615 0.96114,-0.62423 1.60192,0 0.64076,-0.41615 0.96115,-0.62423 0.64077,-0.41616 0.96115,-0.62423 1.60191,0 0.64076,-0.41615 0.96115,-0.62423 0.64077,-0.41615 0.96115,-0.62423 0.64076,-0.41616 0.96115,-0.62422 0.64077,-0.41616 0.96114,-0.62423 0.64077,-0.41615 0.96115,-0.62423 0.64076,-0.41615 0,-1.04039 0.96115,-0.62423 0.64077,-0.41615 0.96115,-0.62423 0.64076,-0.41615 0.96115,-0.62423 0.64077,-0.41615 0,-1.04039 0.96114,-0.62423 0.64077,-0.41615 0.96115,-0.62423 0.64076,-0.41615 0.96115,-0.62423 0.64077,-0.41616 0,-1.04038 0.96115,-0.62423 0.64076,-0.41615 0.96115,-0.62423 0.64077,-0.41615 0.96114,-0.62423 0.64077,-0.41616 0,-1.04038 0.96115,-0.62423 0.64076,-0.41615 0.96115,-0.62423 0.64077,-0.41616 0.96115,-0.62422 0.64076,-0.41616 0,-1.04038 0.96115,-0.62423 0.64076,-0.41615 0.96115,-0.62423 0.64077,-0.41616 0.96115,-0.62423 0.64076,-0.41615 0,-1.04038 0.96115,-0.62423 0.64077,-0.41615 0.96114,-0.62423 0.64077,-0.41616 0.96115,-0.62423 0.64076,-0.41615 0,-1.04038 0.96115,-0.62423 0.64077,-0.41616 0.96115,-0.62423 0.64076,-0.41615 0.96115,-0.62423 0.64077,-0.41615 0,-1.04038 0.96114,-0.62423 0.64077,-0.41616 0.96115,-0.62423 0.64076,-0.41615 0.96115,-0.62423 0.64077,-0.41615 0,-1.04039 0,-1.04038 -0.64077,-0.41615 -0.96115,-0.62423 -0.64076,-0.41615 -0.96115,-0.62423 -0.64077,-0.41616 -0.96114,-0.62423 -0.64077,-0.41615 -0.96115,-0.62423 -0.64076,-0.41615 -0.96115,-0.62423 -0.64077,-0.41615 -0.96115,-0.62423 -0.64076,-0.41616 -0.96115,-0.62423 -0.64077,-0.41615 -0.96114,-0.62423 -0.64077,-0.41615 -0.96115,-0.62423 -0.64076,-0.41616 -0.96115,-0.62422 -0.64077,-0.41616 -0.96115,-0.62423 -0.64076,-0.41615 -0.96115,-0.62423 -0.64076,-0.41615 -0.64077,0.41615 -0.96115,0.62423 -0.64076,0.41615 -0.96115,0.62423 -0.64077,0.41616 -0.96115,0.62422 -0.64076,0.41616 -0.96115,0.62423 -0.64077,0.41615 -0.96114,0.62423 -0.64077,0.41615 -0.96115,0.62423 -0.64076,0.41616 -0.96115,0.62423 -0.64077,0.41615 -0.96115,0.62423 -0.64076,0.41615 -0.96115,0.62423 -0.64077,0.41615 -0.96114,0.62423 -0.64077,0.41616 -0.96115,0.62423 -0.64076,0.41615 -0.96115,0.62423 -0.64077,0.41615 -0.96115,0.62423 -0.64076,0.41615 -0.96115,0.62423 -0.64076,0.41616 -0.96115,0.62423 -0.64077,0.41615 -0.96115,0.62423 -0.64076,0.41615 -0.96115,0.62423 -0.64077,0.41616 -0.96114,0.62423 -0.64077,0.41615 -0.96115,0.62423 -0.64076,0.41615 -0.96115,0.62423 -0.64077,0.41615 -0.96115,0.62423 -0.64076,0.41616 -0.96115,0.62423 -0.64077,0.41615 -0.96114,0.62423 -0.64077,0.41615 -0.96115,0.62423 -0.64076,0.41616 -0.96115,0.62423 -0.64077,0.41615 -0.96115,0.62423 -0.64076,0.41615 -0.96115,0.62423 -0.64076,0.41615 -0.96115,0.62423 -0.64077,0.41616 -0.96115,0.62423 -0.64076,0.41615 -0.96115,0.62423 -0.64077,0.41615 -0.96114,0.62423 -0.64077,0.41615 -0.96115,0.62423 -0.64076,0.41616 -0.96115,0.62423 -0.64077,0.41615 -0.96115,0.62423 -0.64076,0.41615 -0.96115,0.62423 -0.64077,0.41616 -0.96114,0.62423 -0.64077,0.41615 -0.96115,0.62423 -0.64076,0.41615 -0.96115,0.62423 -0.64077,0.41615 -0.96115,0.62423 -0.64076,0.41616 0,1.04038 0.64076,0.41615 0.96115,0.62423 0.64077,0.41616 0.96115,0.62423 0.64076,0.41615 0.96115,0.62423 0.64077,0.41615 0.96114,0.62423 0.64077,0.41615 0.96115,0.62423 0.64076,0.41616 0.96115,0.62423 0.64077,0.41615 0.96115,0.62423 0.64076,0.41615 0.96115,0.62423 0.64077,0.41616 0.96114,0.62422 0.64077,0.41616 0.96115,0.62423 0.64076,0.41615 0.96115,0.62423 0.64077,0.41615 0.96115,0.62423 0.64076,0.41616 0.96115,0.62423 0.64076,0.41615 0.96115,0.62423 0.64077,0.41615 0.96115,0.62423 z m -0.40048,-0.41616 -1.20143,-0.78029 -0.40048,-0.26009 -1.20144,-0.78029 -0.40047,-0.26009 -1.20144,-0.78029 -0.40048,-0.2601 -1.20143,-0.78028 -0.40048,-0.2601 -1.20144,-0.78029 -0.40048,-0.26009 -1.20143,-0.78029 -0.40048,-0.2601 -1.20143,-0.78028 -0.40048,-0.2601 -1.20144,-0.78029 -0.40048,-0.26009 -1.20143,-0.78029 -0.40048,-0.26009 -1.20144,-0.78029 -0.40048,-0.2601 -1.20143,-0.78028 -0.40048,-0.2601 -1.20143,-0.78029 -0.40048,-0.26009 -1.20144,-0.78029 -0.40048,-0.26009 -1.20143,-0.78029 -0.40048,-0.2601 -1.20144,-0.78028 -0.40047,-0.2601 0,-1.04038 0.40047,-0.2601 1.20144,-0.78029 0.40048,-0.26009 1.20143,-0.78029 0.40048,-0.26009 1.20144,-0.78029 0.40048,-0.2601 1.20143,-0.78028 0.40048,-0.2601 1.20143,-0.78029 0.40048,-0.26009 1.20144,-0.78029 0.40048,-0.2601 1.20143,-0.78028 0.40048,-0.2601 1.20144,-0.78029 0.40048,-0.26009 1.20143,-0.78029 0.40048,-0.26009 1.20143,-0.78029 0.40048,-0.2601 1.20144,-0.78028 0.40048,-0.2601 1.20143,-0.78029 0.40048,-0.26009 1.20144,-0.78029 0.40047,-0.26009 1.20144,-0.78029 0.40048,-0.2601 1.20143,-0.78028 0.40048,-0.2601 1.20144,-0.78029 0.40048,-0.26009 1.20143,-0.78029 0.40048,-0.2601 1.20144,-0.78028 0.40047,-0.2601 1.20144,-0.78029 0.40048,-0.26009 1.20143,-0.78029 0.40048,-0.26009 1.20144,-0.78029 0.40048,-0.2601 1.20143,-0.78028 0.40048,-0.2601 1.20143,-0.78029 0.40048,-0.26009 1.20144,-0.78029 0.40048,-0.2601 1.20143,-0.78028 0.40048,-0.2601 1.20144,-0.78029 0.40047,-0.26009 1.20144,-0.78029 0.40048,-0.26009 1.20143,-0.78029 0.40048,-0.2601 1.20144,-0.78028 0.40048,-0.2601 1.20143,-0.78029 0.40048,-0.26009 1.20144,-0.78029 0.40047,-0.26009 1.20144,-0.78029 0.40048,-0.2601 1.20143,-0.78028 0.40048,-0.2601 1.20144,-0.78029 0.40048,-0.26009 1.20143,-0.78029 0.40048,-0.2601 1.20144,-0.78028 0.40047,-0.2601 1.20144,-0.78028 0.40048,-0.2601 1.20143,-0.78029 0.40048,-0.26009 1.20144,-0.78029 0.40048,-0.2601 0.40047,0.2601 1.20144,0.78029 0.40048,0.26009 1.20143,0.78029 0.40048,0.2601 1.20144,0.78028 0.40048,0.2601 1.20143,0.78028 0.40048,0.2601 1.20143,0.78029 0.40048,0.26009 1.20144,0.78029 0.40048,0.2601 1.20143,0.78028 0.40048,0.2601 1.20144,0.78029 0.40048,0.26009 1.20143,0.78029 0.40048,0.26009 1.20143,0.78029 0.40048,0.2601 1.20144,0.78028 0.40048,0.2601 1.20143,0.78029 0.40048,0.26009 0,1.04038 0,1.04039 -0.40048,0.26009 -1.20143,0.78029 -0.40048,0.2601 -1.20144,0.78028 -0.40048,0.2601 -1.20143,0.78029 0,1.04038 -0.40048,0.26009 -1.20143,0.78029 -0.40048,0.2601 -1.20144,0.78028 -0.40048,0.2601 -1.20143,0.78029 0,1.04038 -0.40048,0.2601 -1.20144,0.78028 -0.40048,0.2601 -1.20143,0.78029 -0.40048,0.26009 -1.20143,0.78029 0,1.04038 -0.40048,0.2601 -1.20144,0.78028 -0.40048,0.2601 -1.20143,0.78029 -0.40048,0.26009 -1.20144,0.78029 0,1.04038 -0.40047,0.2601 -1.20144,0.78028 -0.40048,0.2601 -1.20143,0.78029 -0.40048,0.26009 -1.20144,0.78029 0,1.04038 -0.40048,0.2601 -1.20143,0.78029 -0.40048,0.26009 -1.20144,0.78029 -0.40047,0.26009 -1.20144,0.78029 0,1.04038 -0.40048,0.2601 -1.20143,0.78029 -0.40048,0.26009 -1.20144,0.78029 -0.40048,0.2601 -1.20143,0.78028 0,1.04039 -0.40048,0.26009 -1.20144,0.78029 -0.40047,0.26009 -1.20144,0.78029 -0.40048,0.2601 -1.20143,0.78028 0,1.04039 -0.40048,0.26009 -1.20144,0.78029 -0.40048,0.26009 -1.20143,0.78029 -0.40048,0.2601 -1.20143,0.78028 -0.40048,0.2601 -1.20144,0.78029 -0.40048,0.26009 -1.20143,0.78029 -0.40048,0.2601 -1.60191,0 -1.20144,0.78028 -0.40048,0.2601 -1.20143,0.78029 -0.40048,0.26009 -1.60192,0 -1.20143,0.78029 -0.40048,0.26009 -1.20144,0.78029 -0.40047,0.2601 -1.60192,0 z"
         clip-path="url(#p359f862b02)" />
    </g>
    <g
       style="stroke-linecap:butt;stroke-linejoin:round"
       id="PathCollection_6">
      <path
         inkscape:connector-curvature="0"
         id="path32"
         style="fill:#cdcd36;stroke-linecap:butt;stroke-linejoin:round"
         d="m 199.77416,174.23139 1.60192,0 0.40047,-0.2601 1.20144,-0.78029 0.40048,-0.26009 1.20143,-0.78029 1.60192,0 0.40048,-0.26009 1.20143,-0.78029 0.40048,-0.2601 1.20144,-0.78028 1.60191,0 0.40048,-0.2601 1.20143,-0.78029 0.40048,-0.26009 1.20144,-0.78029 0.40048,-0.2601 1.20143,-0.78028 0.40048,-0.2601 1.20143,-0.78029 0.40048,-0.26009 1.20144,-0.78029 0.40048,-0.26009 0,-1.04039 1.20143,-0.78028 0.40048,-0.2601 1.20144,-0.78029 0.40047,-0.26009 1.20144,-0.78029 0.40048,-0.26009 0,-1.04039 1.20143,-0.78028 0.40048,-0.2601 1.20144,-0.78029 0.40048,-0.26009 1.20143,-0.78029 0.40048,-0.2601 0,-1.04038 1.20144,-0.78029 0.40047,-0.26009 1.20144,-0.78029 0.40048,-0.26009 1.20143,-0.78029 0.40048,-0.2601 0,-1.04038 1.20144,-0.78029 0.40048,-0.26009 1.20143,-0.78029 0.40048,-0.2601 1.20144,-0.78028 0.40047,-0.2601 0,-1.04038 1.20144,-0.78029 0.40048,-0.26009 1.20143,-0.78029 0.40048,-0.2601 1.20144,-0.78028 0.40048,-0.2601 0,-1.04038 1.20143,-0.78029 0.40048,-0.26009 1.20143,-0.78029 0.40048,-0.2601 1.20144,-0.78028 0.40048,-0.2601 0,-1.04038 1.20143,-0.78029 0.40048,-0.2601 1.20144,-0.78028 0.40048,-0.2601 1.20143,-0.78029 0.40048,-0.26009 0,-1.04038 1.20143,-0.78029 0.40048,-0.2601 1.20144,-0.78028 0.40048,-0.2601 1.20143,-0.78029 0.40048,-0.26009 0,-1.04039 0,-1.04038 -0.40048,-0.26009 -1.20143,-0.78029 -0.40048,-0.2601 -1.20144,-0.78028 -0.40048,-0.2601 -1.20143,-0.78029 -0.40048,-0.26009 -1.20143,-0.78029 -0.40048,-0.26009 -1.20144,-0.78029 -0.40048,-0.2601 -1.20143,-0.78028 -0.40048,-0.2601 -1.20144,-0.78029 -0.40048,-0.26009 -1.20143,-0.78029 -0.40048,-0.2601 -1.20143,-0.78028 -0.40048,-0.2601 -1.20144,-0.78028 -0.40048,-0.2601 -1.20143,-0.78029 -0.40048,-0.26009 -1.20144,-0.78029 -0.40047,-0.2601 -0.40048,0.2601 -1.20144,0.78029 -0.40048,0.26009 -1.20143,0.78029 -0.40048,0.2601 -1.20144,0.78028 -0.40047,0.2601 -1.20144,0.78028 -0.40048,0.2601 -1.20143,0.78029 -0.40048,0.26009 -1.20144,0.78029 -0.40048,0.2601 -1.20143,0.78028 -0.40048,0.2601 -1.20144,0.78029 -0.40047,0.26009 -1.20144,0.78029 -0.40048,0.26009 -1.20143,0.78029 -0.40048,0.2601 -1.20144,0.78028 -0.40048,0.2601 -1.20143,0.78029 -0.40048,0.26009 -1.20144,0.78029 -0.40047,0.26009 -1.20144,0.78029 -0.40048,0.2601 -1.20143,0.78028 -0.40048,0.2601 -1.20144,0.78029 -0.40048,0.26009 -1.20143,0.78029 -0.40048,0.2601 -1.20143,0.78028 -0.40048,0.2601 -1.20144,0.78029 -0.40048,0.26009 -1.20143,0.78029 -0.40048,0.26009 -1.20144,0.78029 -0.40047,0.2601 -1.20144,0.78028 -0.40048,0.2601 -1.20143,0.78029 -0.40048,0.26009 -1.20144,0.78029 -0.40048,0.2601 -1.20143,0.78028 -0.40048,0.2601 -1.20144,0.78029 -0.40047,0.26009 -1.20144,0.78029 -0.40048,0.26009 -1.20143,0.78029 -0.40048,0.2601 -1.20144,0.78028 -0.40048,0.2601 -1.20143,0.78029 -0.40048,0.26009 -1.20143,0.78029 -0.40048,0.26009 -1.20144,0.78029 -0.40048,0.2601 -1.20143,0.78028 -0.40048,0.2601 -1.20144,0.78029 -0.40048,0.26009 -1.20143,0.78029 -0.40048,0.2601 -1.20143,0.78028 -0.40048,0.2601 -1.20144,0.78029 -0.40048,0.26009 -1.20143,0.78029 -0.40048,0.26009 -1.20144,0.78029 -0.40047,0.2601 0,1.04038 0.40047,0.2601 1.20144,0.78028 0.40048,0.2601 1.20143,0.78029 0.40048,0.26009 1.20144,0.78029 0.40048,0.26009 1.20143,0.78029 0.40048,0.2601 1.20143,0.78028 0.40048,0.2601 1.20144,0.78029 0.40048,0.26009 1.20143,0.78029 0.40048,0.26009 1.20144,0.78029 0.40048,0.2601 1.20143,0.78028 0.40048,0.2601 1.20143,0.78029 0.40048,0.26009 1.20144,0.78029 0.40048,0.2601 1.20143,0.78028 0.40048,0.2601 1.20144,0.78029 0.40047,0.26009 1.20144,0.78029 0.40048,0.26009 1.20143,0.78029 z m -0.16019,-0.2601 -1.44172,-0.93634 -0.16019,-0.10404 -1.44173,-0.93635 -0.16019,-0.10403 -1.44172,-0.93635 -0.16019,-0.10404 -1.44172,-0.93634 -0.16019,-0.10404 -1.44173,-0.93634 -0.16019,-0.10404 -1.44172,-0.93635 -0.16019,-0.10404 -1.44172,-0.93634 -0.1602,-0.10404 -1.44172,-0.93634 -0.16019,-0.10404 -1.44172,-0.93635 -0.16019,-0.10403 -1.44173,-0.93635 -0.16019,-0.10404 -1.44172,-0.93634 -0.16019,-0.10404 -1.44172,-0.93634 -0.1602,-0.10404 -1.44172,-0.93635 -0.16019,-0.10403 -1.44172,-0.93635 -0.16019,-0.10404 -1.44173,-0.93634 -0.16019,-0.10404 0,-1.04038 0.16019,-0.10404 1.44173,-0.93635 0.16019,-0.10403 1.44172,-0.93635 0.16019,-0.10404 1.44172,-0.93634 0.1602,-0.10404 1.44172,-0.93634 0.16019,-0.10404 1.44172,-0.93635 0.16019,-0.10404 1.44173,-0.93634 0.16019,-0.10404 1.44172,-0.93634 0.16019,-0.10404 1.44172,-0.93635 0.1602,-0.10403 1.44172,-0.93635 0.16019,-0.10404 1.44172,-0.93634 0.16019,-0.10404 1.44173,-0.93634 0.16019,-0.10404 1.44172,-0.93635 0.16019,-0.10403 1.44172,-0.93635 0.16019,-0.10404 1.44173,-0.93634 0.16019,-0.10404 1.44172,-0.93634 0.16019,-0.10404 1.44172,-0.93635 0.1602,-0.10404 1.44172,-0.93634 0.16019,-0.10404 1.44172,-0.93634 0.16019,-0.10404 1.44173,-0.93635 0.16019,-0.10403 1.44172,-0.93635 0.16019,-0.10404 1.44172,-0.93634 0.1602,-0.10404 1.44172,-0.93634 0.16019,-0.10404 1.44172,-0.93635 0.16019,-0.10404 1.44173,-0.93634 0.16019,-0.10404 1.44172,-0.93634 0.16019,-0.10404 1.44172,-0.93635 0.16019,-0.10403 1.44173,-0.93635 0.16019,-0.10404 1.44172,-0.93634 0.16019,-0.10404 1.44173,-0.93634 0.16019,-0.10404 1.44172,-0.93635 0.16019,-0.10403 1.44172,-0.93635 0.16019,-0.10404 1.44173,-0.93634 0.16019,-0.10404 1.44172,-0.93634 0.16019,-0.10404 1.44172,-0.93635 0.1602,-0.10403 1.44172,-0.93635 0.16019,-0.10404 1.44172,-0.93634 0.16019,-0.10404 1.44173,-0.93634 0.16019,-0.10404 1.44172,-0.93635 0.16019,-0.10404 1.44172,-0.93634 0.1602,-0.10404 0.16019,0.10404 1.44172,0.93634 0.16019,0.10404 1.44172,0.93635 0.16019,0.10404 1.44173,0.93634 0.16019,0.10404 1.44172,0.93634 0.16019,0.10404 1.44172,0.93635 0.1602,0.10403 1.44172,0.93635 0.16019,0.10404 1.44172,0.93634 0.16019,0.10404 1.44173,0.93634 0.16019,0.10404 1.44172,0.93635 0.16019,0.10403 1.44172,0.93635 0.1602,0.10404 1.44172,0.93634 0.16019,0.10404 1.44172,0.93634 0.16019,0.10404 0,1.04038 0,1.04039 -0.16019,0.10404 -1.44172,0.93634 -0.16019,0.10404 -1.44172,0.93634 -0.1602,0.10404 -1.44172,0.93635 0,1.04038 -0.16019,0.10404 -1.44172,0.93634 -0.16019,0.10404 -1.44173,0.93634 -0.16019,0.10404 -1.44172,0.93635 0,1.04038 -0.16019,0.10404 -1.44172,0.93634 -0.1602,0.10404 -1.44172,0.93635 -0.16019,0.10403 -1.44172,0.93635 0,1.04038 -0.16019,0.10404 -1.44173,0.93634 -0.16019,0.10404 -1.44172,0.93635 -0.16019,0.10403 -1.44172,0.93635 0,1.04038 -0.16019,0.10404 -1.44173,0.93634 -0.16019,0.10404 -1.44172,0.93635 -0.16019,0.10404 -1.44173,0.93634 0,1.04038 -0.16019,0.10404 -1.44172,0.93635 -0.16019,0.10403 -1.44172,0.93635 -0.16019,0.10404 -1.44173,0.93634 0,1.04038 -0.16019,0.10404 -1.44172,0.93635 -0.16019,0.10404 -1.44172,0.93634 -0.1602,0.10404 -1.44172,0.93634 0,1.04039 -0.16019,0.10403 -1.44172,0.93635 -0.16019,0.10404 -1.44173,0.93634 -0.16019,0.10404 -1.44172,0.93634 0,1.04039 -0.16019,0.10403 -1.44172,0.93635 -0.1602,0.10404 -1.44172,0.93634 -0.16019,0.10404 -1.44172,0.93634 -0.16019,0.10404 -1.44173,0.93635 -0.16019,0.10404 -1.44172,0.93634 -0.16019,0.10404 -1.60191,0 -1.44173,0.93634 -0.16019,0.10404 -1.44172,0.93635 -0.16019,0.10403 -1.60192,0 -1.44172,0.93635 -0.16019,0.10404 -1.44172,0.93634 -0.16019,0.10404 -1.60192,0 z"
         clip-path="url(#p359f862b02)" />
    </g>
    <g
       style="stroke-linecap:butt;stroke-linejoin:round"
       id="PathCollection_7">
      <path
         inkscape:connector-curvature="0"
         id="path35"
         style="fill:#00ff00;stroke-linecap:butt;stroke-linejoin:round"
         d="m 199.77416,174.07533 1.60192,0 0.16019,-0.10404 1.44172,-0.93634 0.16019,-0.10404 1.44172,-0.93635 1.60192,0 0.16019,-0.10403 1.44172,-0.93635 0.16019,-0.10404 1.44173,-0.93634 1.60191,0 0.16019,-0.10404 1.44172,-0.93634 0.16019,-0.10404 1.44173,-0.93635 0.16019,-0.10404 1.44172,-0.93634 0.16019,-0.10404 1.44172,-0.93634 0.1602,-0.10404 1.44172,-0.93635 0.16019,-0.10403 0,-1.04039 1.44172,-0.93634 0.16019,-0.10404 1.44173,-0.93634 0.16019,-0.10404 1.44172,-0.93635 0.16019,-0.10403 0,-1.04039 1.44172,-0.93634 0.1602,-0.10404 1.44172,-0.93634 0.16019,-0.10404 1.44172,-0.93635 0.16019,-0.10404 0,-1.04038 1.44173,-0.93634 0.16019,-0.10404 1.44172,-0.93635 0.16019,-0.10403 1.44172,-0.93635 0.16019,-0.10404 0,-1.04038 1.44173,-0.93634 0.16019,-0.10404 1.44172,-0.93635 0.16019,-0.10404 1.44173,-0.93634 0.16019,-0.10404 0,-1.04038 1.44172,-0.93635 0.16019,-0.10403 1.44172,-0.93635 0.16019,-0.10404 1.44173,-0.93634 0.16019,-0.10404 0,-1.04038 1.44172,-0.93635 0.16019,-0.10403 1.44172,-0.93635 0.1602,-0.10404 1.44172,-0.93634 0.16019,-0.10404 0,-1.04038 1.44172,-0.93635 0.16019,-0.10404 1.44173,-0.93634 0.16019,-0.10404 1.44172,-0.93634 0.16019,-0.10404 0,-1.04038 1.44172,-0.93635 0.1602,-0.10404 1.44172,-0.93634 0.16019,-0.10404 1.44172,-0.93634 0.16019,-0.10404 0,-1.04039 0,-1.04038 -0.16019,-0.10404 -1.44172,-0.93634 -0.16019,-0.10404 -1.44172,-0.93634 -0.1602,-0.10404 -1.44172,-0.93635 -0.16019,-0.10403 -1.44172,-0.93635 -0.16019,-0.10404 -1.44173,-0.93634 -0.16019,-0.10404 -1.44172,-0.93634 -0.16019,-0.10404 -1.44172,-0.93635 -0.1602,-0.10403 -1.44172,-0.93635 -0.16019,-0.10404 -1.44172,-0.93634 -0.16019,-0.10404 -1.44173,-0.93634 -0.16019,-0.10404 -1.44172,-0.93635 -0.16019,-0.10404 -1.44172,-0.93634 -0.16019,-0.10404 -0.1602,0.10404 -1.44172,0.93634 -0.16019,0.10404 -1.44172,0.93635 -0.16019,0.10404 -1.44173,0.93634 -0.16019,0.10404 -1.44172,0.93634 -0.16019,0.10404 -1.44172,0.93635 -0.1602,0.10403 -1.44172,0.93635 -0.16019,0.10404 -1.44172,0.93634 -0.16019,0.10404 -1.44173,0.93634 -0.16019,0.10404 -1.44172,0.93635 -0.16019,0.10403 -1.44172,0.93635 -0.16019,0.10404 -1.44173,0.93634 -0.16019,0.10404 -1.44172,0.93634 -0.16019,0.10404 -1.44173,0.93635 -0.16019,0.10403 -1.44172,0.93635 -0.16019,0.10404 -1.44172,0.93634 -0.16019,0.10404 -1.44173,0.93634 -0.16019,0.10404 -1.44172,0.93635 -0.16019,0.10404 -1.44172,0.93634 -0.1602,0.10404 -1.44172,0.93634 -0.16019,0.10404 -1.44172,0.93635 -0.16019,0.10403 -1.44173,0.93635 -0.16019,0.10404 -1.44172,0.93634 -0.16019,0.10404 -1.44172,0.93634 -0.1602,0.10404 -1.44172,0.93635 -0.16019,0.10404 -1.44172,0.93634 -0.16019,0.10404 -1.44173,0.93634 -0.16019,0.10404 -1.44172,0.93635 -0.16019,0.10403 -1.44172,0.93635 -0.16019,0.10404 -1.44173,0.93634 -0.16019,0.10404 -1.44172,0.93634 -0.16019,0.10404 -1.44172,0.93635 -0.1602,0.10403 -1.44172,0.93635 -0.16019,0.10404 -1.44172,0.93634 -0.16019,0.10404 -1.44173,0.93634 -0.16019,0.10404 -1.44172,0.93635 -0.16019,0.10404 -1.44172,0.93634 -0.1602,0.10404 -1.44172,0.93634 -0.16019,0.10404 -1.44172,0.93635 -0.16019,0.10403 -1.44173,0.93635 -0.16019,0.10404 0,1.04038 0.16019,0.10404 1.44173,0.93634 0.16019,0.10404 1.44172,0.93635 0.16019,0.10403 1.44172,0.93635 0.1602,0.10404 1.44172,0.93634 0.16019,0.10404 1.44172,0.93634 0.16019,0.10404 1.44173,0.93635 0.16019,0.10403 1.44172,0.93635 0.16019,0.10404 1.44172,0.93634 0.1602,0.10404 1.44172,0.93634 0.16019,0.10404 1.44172,0.93635 0.16019,0.10404 1.44173,0.93634 0.16019,0.10404 1.44172,0.93634 0.16019,0.10404 1.44172,0.93635 0.16019,0.10403 1.44173,0.93635 0.16019,0.10404 1.44172,0.93634 z"
         clip-path="url(#p359f862b02)" />
    </g>
    <g
       style="fill:#0000ff;stroke-linecap:butt;stroke-linejoin:round"
       id="LineCollection_2">
      <path
         inkscape:connector-curvature="0"
         id="path356"
         style="fill:#0000ff;stroke:#0000ff;stroke-width:1.5;stroke-linecap:butt;stroke-linejoin:round"
         d="m 204.5799,156.33996 -0.33825,-0.0552 -1.26366,-0.28407 -1.50732,-0.75631 -0.0946,-0.0796 -0.74452,-0.96083 -0.33231,-1.04038 -0.01,-1.04039 0.21744,-1.04038 0.38672,-1.04038 0.48252,-0.96084 0.0409,-0.0795 0.68301,-1.04038 0.77039,-1.04038 0.10759,-0.12621 0.79957,-0.91417 0.80234,-0.84696 0.18896,-0.19343 1.10985,-1.04038 0.30311,-0.2649 0.91862,-0.77548 0.68329,-0.54555 0.64521,-0.49483 0.95671,-0.69785 0.49177,-0.34254 1.11014,-0.7395 0.47598,-0.30088 1.12593,-0.68437 0.62128,-0.35601 0.98064,-0.54317 0.95866,-0.49722 0.64325,-0.32409 1.52898,-0.71629 0.0729,-0.0333 1.60192,-0.65661 0.94573,-0.35042 0.65618,-0.23828 1.60192,-0.50222 1.13874,-0.29988 0.46317,-0.11997 1.60191,-0.30644 1.60192,-0.19456 1.60191,-0.046 1.60192,0.16319 1.60191,0.47581 0.0551,0.0279 1.30724,1.04038 0.2396,0.38607 0.28808,0.65431 0.13172,1.04038 -0.11706,1.04039 -0.30274,1.04038 0,0 -0.49177,1.04038 -0.60884,1.04039 -0.5013,0.72489 -0.22368,0.31549 -0.85096,1.04038 -0.52727,0.58399 -0.42396,0.45639 -1.04998,1.04039 -0.12798,0.11653 -1.04794,0.92385 -0.55397,0.46068 -0.72394,0.5797 -0.87798,0.66692 -0.51354,0.37346 -1.08837,0.75502 -0.43231,0.28537 -1.1696,0.7405 -0.50099,0.29988 -1.10093,0.63545 -0.74705,0.40493 -0.85486,0.44912 -1.20676,0.59127 -0.39516,0.18856 -1.60191,0.69923 -0.39027,0.15259 -1.21164,0.46331 -1.60192,0.55035 -0.0946,0.0267 -1.50732,0.41796 -1.60191,0.36162 -1.60192,0.2608 0,0 -1.60191,0.11117 -1.60192,-0.056"
         clip-path="url(#p359f862b02)" />
    </g>
    <g
       style="fill:none;stroke-linecap:butt;stroke-linejoin:round"
       id="line2d_19">
      <path
         inkscape:connector-curvature="0"
         id="path359"
         style="fill:none;stroke:#ff0000;stroke-width:1.5;stroke-linecap:butt;stroke-linejoin:round;stroke-dasharray:5.55, 2.4;stroke-dashoffset:0"
         d="m 68.417225,246.79809 0,-202.874645 297.955985,0 0,202.874645 -297.955985,0"
         clip-path="url(#p359f862b02)" />
    </g>
    <g
       style="stroke-linecap:butt;stroke-linejoin:round"
       id="line2d_20">
      <path
         inkscape:connector-curvature="0"
         id="path362"
         style="fill:none;stroke:#008000;stroke-width:1.5;stroke-linecap:butt;stroke-linejoin:round;stroke-dasharray:5.55, 2.4;stroke-dashoffset:0"
         d="m 174.14354,173.97129 0,-57.22105 84.90144,0 0,57.22105 -84.90144,0"
         clip-path="url(#p359f862b02)" />
    </g>
    <path
       transform="matrix(0.8,0,0,0.8,0.89049591,-0.9498623)"
       d="m 270.94265,182.48058 c 0,0.25871 -0.21803,0.46843 -0.48699,0.46843 -0.26896,0 -0.48699,-0.20972 -0.48699,-0.46843 0,-0.25872 0.21803,-0.46844 0.48699,-0.46844 0.26896,0 0.48699,0.20972 0.48699,0.46844 z"
       sodipodi:ry="0.46843794"
       sodipodi:rx="0.48698995"
       sodipodi:cy="182.48058"
       sodipodi:cx="270.45566"
       id="path3735"
       style="fill:#000000;fill-opacity:1;stroke:#000000;stroke-width:0.1;stroke-linecap:butt;stroke-linejoin:round;stroke-miterlimit:10.43299961;stroke-opacity:1;stroke-dasharray:none;stroke-dashoffset:0"
       sodipodi:type="arc" />
    <g
       id="g4658"
       transform="matrix(0.79967593,0,0,0.79967593,37.103945,-20.070782)"
       style="stroke-linecap:butt;stroke-linejoin:round">
      <g
         id="g4637"
         style="stroke-linecap:butt;stroke-linejoin:round">
        <rect
           style="fill:#00ff00;fill-opacity:1;stroke:#000000;stroke-width:0.25019661;stroke-linecap:butt;stroke-linejoin:round;stroke-miterlimit:10.43299961;stroke-opacity:1;stroke-dasharray:none;stroke-dashoffset:0"
           id="rect3767"
           width="63.412037"
           height="21.292362"
           x="-183.36642"
           y="161.83391" />
        <rect
           style="fill:#0000ff;fill-opacity:1;stroke:#000000;stroke-width:0.25019661;stroke-linecap:butt;stroke-linejoin:round;stroke-miterlimit:10.43299961;stroke-opacity:1;stroke-dasharray:none;stroke-dashoffset:0"
           id="rect3767-3"
           width="63.412037"
           height="21.292362"
           x="-183.36642"
           y="111.9059" />
        <rect
           style="fill:#ffaaaa;fill-opacity:1;stroke:#000000;stroke-width:0.25019658;stroke-linecap:butt;stroke-linejoin:round;stroke-miterlimit:10.43299961;stroke-opacity:1;stroke-dasharray:none;stroke-dashoffset:0"
           id="rect3767-3-6"
           width="63.412037"
           height="21.292362"
           x="-183.36642"
           y="212.05614" />
        <flowRoot
           xml:space="preserve"
           id="flowRoot4573"
           style="font-size:20px;font-style:normal;font-weight:normal;line-height:125%;letter-spacing:0px;word-spacing:0px;fill:#000000;fill-opacity:1;stroke:none;font-family:Sans"
           transform="matrix(0.79999999,0,0,0.79999999,-26.455806,102.37117)"><flowRegion
             id="flowRegion4575"><rect
               id="rect4577"
               width="149.60332"
               height="47.493118"
               x="-99.735542"
               y="60.717945" /></flowRegion><flowPara
             id="flowPara4579">Compatibility polytope</flowPara></flowRoot>        <flowRoot
           xml:space="preserve"
           id="flowRoot4573-7"
           style="font-size:20px;font-style:normal;font-weight:normal;line-height:125%;letter-spacing:0px;word-spacing:0px;fill:#000000;fill-opacity:1;stroke:none;font-family:Sans"
           transform="matrix(0.79999999,0,0,0.79999999,-27.010493,154.14418)"><flowRegion
             id="flowRegion4575-5"><rect
               id="rect4577-3"
               width="149.60332"
               height="47.493118"
               x="-99.735542"
               y="60.717945" /></flowRegion><flowPara
             id="flowPara4579-5">Ellyptic upper bound</flowPara></flowRoot>        <flowRoot
           xml:space="preserve"
           id="flowRoot4573-7-6"
           style="font-size:20px;font-style:normal;font-weight:normal;line-height:125%;letter-spacing:0px;word-spacing:0px;fill:#000000;fill-opacity:1;stroke:none;font-family:Sans"
           transform="matrix(0.79999999,0,0,0.79999999,-27.010493,53.993938)"><flowRegion
             id="flowRegion4575-5-2"><rect
               id="rect4577-3-9"
               width="149.60332"
               height="47.493118"
               x="-99.735542"
               y="60.717945" /></flowRegion><flowPara
             id="flowPara4579-5-1">Ellyptic lower bound</flowPara></flowRoot>      </g>
      <rect
         ry="37.994492"
         transform="matrix(0.79999999,0,0,0.79999999,38.28125,23.872495)"
         y="80.902519"
         x="-300.39395"
         height="206.59505"
         width="276.6474"
         id="rect4654"
         style="fill:none;stroke:#0000ff;stroke-width:3.9000001;stroke-linecap:butt;stroke-linejoin:round;stroke-miterlimit:10.43299961;stroke-opacity:1;stroke-dasharray:none;stroke-dashoffset:0" />
    </g>
    <flowRoot
       xml:space="preserve"
       id="flowRoot4677"
       style="font-size:20px;font-style:normal;font-weight:normal;line-height:125%;letter-spacing:0px;word-spacing:0px;fill:#000000;fill-opacity:1;stroke:none;font-family:Sans"
       transform="matrix(0.79999999,0,0,0.79999999,7.8856569,59.967262)"><flowRegion
         id="flowRegion4679"><rect
           id="rect4681"
           width="153.1653"
           height="32.05785"
           x="81.925621"
           y="-9.3343992" /></flowRegion><flowPara
         id="flowPara4683">Least squares</flowPara></flowRoot>    <path
       style="fill:none;stroke:#000000;stroke-width:1px;stroke-linecap:butt;stroke-linejoin:miter;stroke-opacity:1;marker-end:url(#Arrow2Lend)"
       d="M 104.48485,59.530617 C 220.84298,148.58021 220.84298,148.58021 220.84298,148.58021"
       id="path4685"
       inkscape:connector-curvature="0"
       transform="matrix(0.79999999,0,0,0.79999999,38.28125,23.872495)" />
    <path
       style="fill:none;stroke:#000000;stroke-width:0.80000001px;stroke-linecap:butt;stroke-linejoin:miter;stroke-opacity:1;marker-end:url(#Arrow2Lend)"
       d="M 294.51794,204.83539 257.47331,177.28938"
       id="path4685-0"
       inkscape:connector-curvature="0"
       sodipodi:nodetypes="cc" />
    <flowRoot
       xml:space="preserve"
       id="flowRoot5341"
       style="font-size:20px;font-style:normal;font-weight:normal;line-height:125%;letter-spacing:0px;word-spacing:0px;fill:#000000;fill-opacity:1;stroke:none;font-family:Sans"
       transform="matrix(0.79999999,0,0,0.79999999,23.083453,20.073046)"><flowRegion
         id="flowRegion5343"><rect
           id="rect5345"
           width="143.66667"
           height="68.865028"
           x="280.20938"
           y="230.50583" /></flowRegion><flowPara
         id="flowPara5349">Uncertancy in parameters</flowPara></flowRoot>    <flowRoot
       xml:space="preserve"
       id="flowRoot5341-9"
       style="font-size:20px;font-style:normal;font-weight:normal;line-height:125%;letter-spacing:0px;word-spacing:0px;fill:#000000;fill-opacity:1;stroke:none;font-family:Sans"
       transform="matrix(0.79999999,0,0,0.79999999,-351.4951,15.641308)"><flowRegion
         id="flowRegion5343-3"><rect
           id="rect5345-6"
           width="207.78235"
           height="79.55098"
           x="280.20938"
           y="230.50583" /></flowRegion><flowPara
         id="flowPara5349-0">Eliptic box upper bound in uncertancy parameters</flowPara></flowRoot>    <path
       style="fill:none;stroke:#000000;stroke-width:0.80000001px;stroke-linecap:butt;stroke-linejoin:miter;stroke-opacity:1;marker-end:url(#Arrow2Lend)"
       d="M 6.6913412,221.21161 63.68308,203.16423"
       id="path4685-0-6"
       inkscape:connector-curvature="0"
       sodipodi:nodetypes="cc" />
  </g>
  <defs
     id="defs376">
    <clipPath
       id="p359f862b02">
      <rect
         height="217.44"
         width="334.79999"
         x="54"
         y="34.560001"
         id="rect379"
         style="stroke-linecap:butt;stroke-linejoin:round" />
    </clipPath>
  </defs>
</svg>
